<svg xmlns="http://www.w3.org/2000/svg" width="33.262" height="32.638"><path data-name="パス 68" d="M10.112 2.214h13.077c.032-1.079.095-1.859.124-2.176V.001H9.979c.028.292.092 1.092.133 2.213z" fill="#374149"/><path data-name="パス 69" d="M4.149 21.906a2.213 2.213 0 01-.2.011H.1v10.681h5.676s-.05-.874-.172-2.168a45.848 45.848 0 00-1.455-8.524z" fill="#374149"/><path data-name="パス 70" d="M8.292 7.743a43.722 43.722 0 00.155-5.53C8.403.897 8.32.043 8.32.043H.1v17.17h3.845a1.942 1.942 0 01.763.155 39.814 39.814 0 002.318-4.176 15.456 15.456 0 001.046-3.789c.093-.546.165-1.105.22-1.66z" fill="#374149"/><path data-name="パス 71" d="M30.966 21.917h-1.654a.85.85 0 01-.166-.011 45.83 45.83 0 00-1.455 8.519c-.115 1.223-.165 2.061-.171 2.151v.017h5.676V21.917h-2.23z" fill="#374149"/><path data-name="パス 72" d="M29.312 17.215h3.883V.043h-8.22s-.083.852-.127 2.168a43.668 43.668 0 00.155 5.532c.055.553.127 1.112.221 1.659a15.453 15.453 0 001.046 3.789 38.683 38.683 0 002.312 4.165 1.89 1.89 0 01.73-.141z" fill="#374149"/><path data-name="パス 73" d="M17.553 30.425V9.404h5.989q-.125-.83-.2-1.659H9.952c-.046.51-.109 1.029-.189 1.544-.006.034-.01.071-.016.1s0 .007 0 .01h6.146V30.42H7.286c.072.852.121 1.571.149 2.069l.006.144h18.415l.006-.144c.032-.484.075-1.179.144-2 0-.02 0-.038.005-.058v-.01h-8.458z" fill="#374149"/><path data-name="パス 74" d="M.1 20.258h3.844a.341.341 0 00.315-.2.334.334 0 00.028-.133v-.7a.348.348 0 00-.343-.343H0v1.382z" fill="#374149"/><path data-name="パス 75" d="M33.196 18.875h-3.883a.347.347 0 00-.337.343v.7a.3.3 0 00.044.161.331.331 0 00.293.177h1.653l2.213.006h.083v-1.388z" fill="#374149"/></svg>