<svg xmlns="http://www.w3.org/2000/svg" width="26.708" height="34.587"><path data-name="パス 32" d="M0 29.989h26.617a.091.091 0 00.092-.089V6.183H0zm3.133-12.954A10.084 10.084 0 0116.725 8.57l.034.014q.307.117.6.253c.055.025.108.054.163.081.156.075.311.151.463.234.057.031.112.066.169.1.149.085.3.17.441.262.036.023.07.049.106.072.164.108.326.218.483.335a10.131 10.131 0 013.082 3.745h1.392a1.642 1.642 0 011.642 1.642v5.861a1.64 1.64 0 01-1.642 1.642h-1.625a10.1 10.1 0 01-8.682 5.274h-.184A10.089 10.089 0 013.086 18.004a9.376 9.376 0 01.047-.969z" fill="#374149"/><path data-name="パス 33" d="M24.206 0h-1.02v1.615a.52.52 0 01-.519.519h-4.706a.52.52 0 01-.522-.519V0H2.499a2.5 2.5 0 00-2.5 2.5v2.7h26.709V2.5A2.5 2.5 0 0024.206 0zM5.017 3.885a1.368 1.368 0 111.369-1.367 1.368 1.368 0 01-1.369 1.367z" fill="#374149"/><path data-name="パス 34" d="M.001 31.522v.091a2.974 2.974 0 002.978 2.976h20.664a3.072 3.072 0 003.06-2.965c0-.03.005-.059.005-.088v-.011z" fill="#374149"/><path data-name="パス 35" d="M13.166 26.239a8.234 8.234 0 008.235-8.232v-.148a8.233 8.233 0 00-16.464.066.654.654 0 000 .079 8.244 8.244 0 008.229 8.235zm-6.853-9.2a1.552 1.552 0 00.108-.237.1.1 0 01.2 0 1.708 1.708 0 003.215 0 .1.1 0 01.2 0 1.706 1.706 0 003.211 0 .107.107 0 01.2 0 1.7 1.7 0 003.208 0 .107.107 0 01.2 0 1.7 1.7 0 002.986.42 1.778 1.778 0 00.162-.252 6.922 6.922 0 11-13.766 1.034 6.633 6.633 0 01.08-.962z" fill="#374149"/></svg>