<svg xmlns="http://www.w3.org/2000/svg" width="38.191" height="32.182"><path data-name="パス 97" d="M18.881 23.315c.006 0 .012-.006.024-.012a1.408 1.408 0 00.3-.215c.018-.018.036-.042.054-.06a1.165 1.165 0 00.185-.262c.018-.036.036-.072.054-.114a1.258 1.258 0 00.089-.322l.018-.155a1.9 1.9 0 00.024-.191c0-1.51-.1-3.694-.364-7.531-.239-3.634-1.48-3.634-2.68-3.634h-.143c-1.2 0-2.441 0-2.685 3.634-.257 3.843-.364 6.027-.364 7.531a1.9 1.9 0 00.024.191l.018.155a1.582 1.582 0 00.1.322.653.653 0 00.048.114 1.4 1.4 0 00.185.262.548.548 0 01.06.06 1.4 1.4 0 00.3.215.032.032 0 00.024.012 8.238 8.238 0 004.726 0zm-4.236-5.941c.042-.839.107-1.784.178-2.861.113-1.73.448-2.3.638-2.483.173-.173.436-.2.985-.2h.328c.555 0 .811.03.991.2s.507.728.626 2.387l-2.286 1.8-.883.71-.353.277z" fill="#374149"/><path data-name="パス 98" d="M38.185 19.186a4.264 4.264 0 00-.042-.478l-.036-.191c-.018-.084-.018-.167-.042-.245L35.5 8.498a3.464 3.464 0 00-2.548-2.5c-1.736-.412-4.917-1.17-6.134-1.456l-.561-.137a2.96 2.96 0 00-.131-1.038 2.751 2.751 0 00-.788-1.2l-.038-.046a4.785 4.785 0 00-.62-.465l-.084-.048-.054-.03-.083-.048-.108-.06C22.644.479 20.174-.004 16.802-.004c-.113 0-.227.006-.34.006s-.227-.006-.346-.006c-3.378 0-5.86.489-7.573 1.486l-.072.042a6.431 6.431 0 00-.847.6 3.14 3.14 0 00-.2.2l-1.372.448c-1.814.591-4.4 1.522-4.512 1.564L.06 4.87l-.054.018v.006H0l4.368 10.842c-.006.149-.024.3-.036.466a97.903 97.903 0 00-.28 4.732l-.018.525-.012.114v.03c0 .173-.006.352-.012.531-.084 2.065-.131 4.088-.119 4.72l.006.006v.018a2.863 2.863 0 00.442 1.385c.668 1.223 3.133 3.92 11.827 3.92h.579c8.694 0 11.159-2.691 11.827-3.92a2.868 2.868 0 00.448-1.42v-.036l6.994-3.8a4.185 4.185 0 001.862-2.065c.03-.072.048-.149.072-.227s.048-.131.066-.2a3.826 3.826 0 00.113-.454c.012-.072.024-.137.03-.209.018-.155.03-.3.036-.46-.001-.071-.001-.141-.008-.206zm-32.7 3.013l.018-.6.006-.072c0-.179.006-.352.018-.525.065-1.737.161-3.294.281-4.69.012-.215.036-.424.048-.633.006-.072.012-.149.024-.215.083-1.038.2-1.981.31-2.835.836-6.29 2.059-7.793 2.059-7.793a1.428 1.428 0 01-.042-1.044 1.374 1.374 0 01.406-.579c.006-.006.113-.089.251-.191a3.2 3.2 0 01.334-.221l.084-.042c1.176-.692 3.157-1.283 6.833-1.283h.685c3.676 0 5.657.591 6.839 1.283l.077.042c.06.036.113.072.167.1a2.7 2.7 0 01.418.31l.012.012a1.362 1.362 0 01.4.567 1.49 1.49 0 01.06.262 1.338 1.338 0 01-.108.782s1.223 1.5 2.065 7.8c.03.251.059.5.1.77.084.7.155 1.456.233 2.274a106.857 106.857 0 01.328 5.323c.006.072.006.155.012.233v.024c.006.113.006.227.012.328l.018.406c.006.3.024.591.03.877.024.6.042 1.158.054 1.665v.472c-.126.066-.257.125-.388.185-.489.227-1 .436-1.528.627a26.153 26.153 0 01-9.106 1.581 25.538 25.538 0 01-11.1-2.429c.012-.778.041-1.739.089-2.771zm-.827-9.6a.21.21 0 01-.013.03C3.767 9.99 1.67 5.498 1.66 5.429c1.838-.06 4.022-.137 4.833-.167-.818 1.474-1.522 5.454-1.754 6.881-.039.218-.067.378-.082.453zm24.182 7.882a85.85 85.85 0 00-.226-3.832c-.03-.382-.059-.74-.089-1.092a80.355 80.355 0 00-.215-2.19.093.093 0 000-.029v-.007l.543-.03h.024a.525.525 0 01.477.31l1.9 4.344a1.232 1.232 0 01-.561 1.581l-1.3.674-.39.2zm.16 4.64c-.018-.829-.054-1.871-.1-3l2.459-1.277a2.7 2.7 0 001.241-3.479l-1.9-4.344a2.005 2.005 0 00-1.832-1.2l-.1.006-.662.036a39.017 39.017 0 00-.621-3.414c-.024-.105-.047-.215-.072-.322 0-.026-.01-.049-.013-.077 1.432.34 3.219.769 4.375 1.043a2.008 2.008 0 011.468 1.432l3.413 9.381a2.483 2.483 0 01-.149.465 2.688 2.688 0 01-1.2 1.337l-4.362 2.369-1.344.726z" fill="#374149"/><path data-name="パス 99" d="M22.687 5.329a.822.822 0 00.089-.37c0-.018-.012-.036-.012-.054s.012-.06.012-.089c0-.4-.3-.77-.812-1.092a11.327 11.327 0 00-5.532-1.146c-3.055 0-5.6.764-6.212 1.772a.95.95 0 00-.131.466v.006c0 .024.012.042.012.066s-.012.048-.012.071v.006c.018 1.229 2.852 2.226 6.343 2.226 3.141 0 5.755-.806 6.255-1.862zm-6.254-2.172c1.42 0 2.566.37 2.661.925-.1.561-1.241 1.008-2.661 1.008a4.2 4.2 0 01-2.363-.579v-.012h-.012a.778.778 0 01-.292-.4c.073-.563 1.23-.942 2.662-.942z" fill="#374149"/></svg>