<svg xmlns="http://www.w3.org/2000/svg" width="50.837" height="47.022"><g fill="#374149"><path data-name="パス 38" d="M28.058 8.302a2.149 2.149 0 00-.08-.16c-.951-1.698-3.711-4.908-6.257-5.098-4.22-.316-8.122 2.045-11.96 9.503l-.007.018q-.208.405-.416.83c-.01.026-.025.052-.038.077q-.198.406-.396.832l-.05.11q-.194.419-.388.855a71.016 71.016 0 00-.439 1.014l-.04.105c-.131.313-.263.63-.393.956l-.028.072a78.95 78.95 0 00-.403 1.023l-.007.017c-.19.495-.386 1.005-.572 1.531-.095.246-.181.493-.272.746l-.005.013 4.717 1.944c1.337-3.168 2.712-6.49 5.12-8.874 1.215-1.212 2.288-2.026 2.613-1.65a25.132 25.132 0 002.95 2.49 1.74 1.74 0 002.259-.109l3.875-3.678a1.916 1.916 0 00.403-2.166z"/><path data-name="パス 39" d="M5.45 24.972l-.167-.07-.011-.005-4.28 14.047 2.311.956 5.315-12.92.24-.582.006-.015z"/><path data-name="パス 40" d="M34.587 12.301a.687.687 0 00.18.11.644.644 0 00.766-.205.725.725 0 00-.122-.984.657.657 0 00-.95.096.723.723 0 00.126.983z"/><path data-name="パス 41" d="M42.174 18.01a.682.682 0 00.18.107.644.644 0 00.768-.204.719.719 0 00-.123-.982.665.665 0 00-.39-.15.635.635 0 00-.562.243.726.726 0 00.127.986z"/><path data-name="パス 42" d="M39.444 14.764a.722.722 0 00-.125-.983.654.654 0 00-.953.093.727.727 0 00.128.987.77.77 0 00.18.107.649.649 0 00.77-.204z"/><path data-name="パス 43" d="M46.681 20.081a.662.662 0 00-.39-.15.62.62 0 00-.206.024.622.622 0 00-.348.22.725.725 0 00.125.986.7.7 0 00.18.107.647.647 0 00.768-.202.722.722 0 00-.129-.985z"/><path data-name="パス 44" d="M50.357 23.23a.654.654 0 00-.946.095.727.727 0 00.128.987.663.663 0 00.174.104.647.647 0 00.773-.202.724.724 0 00-.129-.985z"/><path data-name="パス 45" d="M31.696 13.991a.664.664 0 00.112.019.627.627 0 00.09.014.619.619 0 00.197-.017.646.646 0 00.11-.037c.031-.013.066-.014.096-.032a.7.7 0 00.19-.961.676.676 0 00-.79-.288l-.009.004a.626.626 0 00-.14.053.7.7 0 00-.187.962.715.715 0 00.331.283z"/><path data-name="パス 46" d="M34.23 18.26a.675.675 0 00.112.018.633.633 0 00.089.014.617.617 0 00.199-.017.648.648 0 00.102-.034c.032-.015.068-.014.099-.034a.7.7 0 00.194-.961.671.671 0 00-.79-.286.626.626 0 00-.144.052.7.7 0 00-.188.964.7.7 0 00.328.284z"/><path data-name="パス 47" d="M37.164 22.546a.593.593 0 00.104-.036c.033-.014.068-.014.098-.033a.7.7 0 00.193-.96.671.671 0 00-.79-.287.613.613 0 00-.14.053.7.7 0 00-.188.962.7.7 0 00.333.282.661.661 0 00.11.018.612.612 0 00.08.018.6.6 0 00.2-.017z"/><path data-name="パス 48" d="M39.298 25.5a.6.6 0 00-.144.05.7.7 0 00-.185.966.7.7 0 00.33.278.66.66 0 00.11.018.635.635 0 00.092.015.619.619 0 00.194-.011.606.606 0 00.108-.038c.032-.013.067-.014.097-.034a.7.7 0 00.19-.959.676.676 0 00-.792-.286z"/><path data-name="パス 49" d="M41.836 29.766l-.01.004a.609.609 0 00-.141.054.7.7 0 00-.186.965.7.7 0 00.33.282.655.655 0 00.607-.054.7.7 0 00.19-.964.68.68 0 00-.79-.287z"/><path data-name="パス 50" d="M29.281 15.343a.7.7 0 00-.838-.506.677.677 0 00-.462.852.728.728 0 00.418.482.662.662 0 00.417.03.68.68 0 00.465-.858z"/><path data-name="パス 51" d="M29.626 21.061a.663.663 0 00.417.03.68.68 0 00.462-.851.708.708 0 00-.075-.143.683.683 0 00-.763-.363.673.673 0 00-.46.849.727.727 0 00.42.478z"/><path data-name="パス 52" d="M32.117 29.526a.677.677 0 00-.462.851.727.727 0 00.418.482.653.653 0 00.418.03.679.679 0 00.464-.857.7.7 0 00-.838-.506z"/><path data-name="パス 53" d="M33.34 34.422a.676.676 0 00-.46.853.728.728 0 00.419.481.663.663 0 00.417.03.677.677 0 00.46-.852.7.7 0 00-.835-.512z"/><path data-name="パス 54" d="M31.729 25.138a.7.7 0 00-.073-.144.683.683 0 00-.764-.365.677.677 0 00-.462.849.728.728 0 00.418.481.671.671 0 00.417.03.676.676 0 00.464-.85z"/><path data-name="パス 55" d="M25.248 45.744a.692.692 0 00-.565-.315.663.663 0 00-.647.707.734.734 0 00.444.644.676.676 0 00.263.049.661.661 0 00.647-.704.722.722 0 00-.142-.381z"/><path data-name="パス 56" d="M25.871 17.304a.687.687 0 00-.566-.315.661.661 0 00-.647.704.73.73 0 00.446.645.66.66 0 00.26.05.663.663 0 00.648-.702.727.727 0 00-.14-.382z"/><path data-name="パス 57" d="M26.207 32.521l-.005-.002a.691.691 0 00-.56-.314.661.661 0 00-.647.706.734.734 0 00.445.644.7.7 0 00.259.05.661.661 0 00.647-.706.713.713 0 00-.139-.378z"/><path data-name="パス 58" d="M25.982 22.376a.681.681 0 00-.565-.313.657.657 0 00-.646.704.734.734 0 00.445.644.657.657 0 00.906-.656.72.72 0 00-.14-.38z"/><path data-name="パス 59" d="M25.009 40.998a.694.694 0 00-.565-.315.662.662 0 00-.645.708.728.728 0 00.446.642.656.656 0 00.906-.654.723.723 0 00-.142-.381z"/><path data-name="パス 60" d="M25.529 27.134a.656.656 0 00-.645.705.724.724 0 00.445.644.658.658 0 00.26.05.665.665 0 00.646-.706.716.716 0 00-.706-.693z"/></g></svg>