<svg xmlns="http://www.w3.org/2000/svg" width="48.391" height="21.949"><path data-name="パス 92" d="M24.278 17.282v.425h-.343v-.425H4.415l.216 1.036h39.13l.177-.848.039-.173v-.015z" fill="#b9bbbe"/><path data-name="パス 93" d="M4.329 16.872h19.6v-.619h.343v.619h19.787l.209-1.012.045-.2v-.015H4.075z" fill="#b9bbbe"/><path data-name="パス 94" d="M27.248 10.089l.116-.174v-1.1l-.116-.174h-6.111l-.116.174v1.1l.116.174z" fill="#b9bbbe"/><path data-name="パス 95" d="M4.318 11.42a.36.36 0 00.084.116.374.374 0 00.393.072l.023-.012a.358.358 0 00.117-.062l6.049-6.049a.393.393 0 00-.278-.671H4.661a.393.393 0 00-.393.393v6.049a.361.361 0 00.047.15s.001.011.003.014z" fill="#b9bbbe"/><path data-name="パス 96" d="M46.81 0H1.573L0 2.774v14.043l.872 3.3a2.474 2.474 0 002.393 1.834h41.86a2.472 2.472 0 002.386-1.834l.88-3.3V2.774zM2.237 16.517V3.363l.165-.294h43.585l.167.294v13.154l-.805 3.02a.231.231 0 01-.224.171H3.265a.233.233 0 01-.231-.171z" fill="#b9bbbe"/></svg>