<svg xmlns="http://www.w3.org/2000/svg" width="37.093" height="30.828"><path data-name="パス 67" d="M34.288 11.169V.939A.94.94 0 0033.343 0H3.744a.939.939 0 00-.939.939v10.23A7.827 7.827 0 000 17.185v13.162a.479.479 0 00.475.481h3.686a.479.479 0 00.475-.481V25.86a.477.477 0 01.475-.475h26.87a.477.477 0 01.475.475v4.492a.479.479 0 00.475.481h3.686a.479.479 0 00.475-.481V17.185a7.826 7.826 0 00-2.804-6.016zM2.97 14.578a5.538 5.538 0 014.889-2.935h21.375a5.543 5.543 0 014.888 2.934 1.262 1.262 0 01-1.108 1.859H4.079a1.262 1.262 0 01-1.109-1.858zm26.554-5.833a.384.384 0 01-.319.255 34.566 34.566 0 01-8.954 0 .368.368 0 01-.313-.255 6.293 6.293 0 010-4.874.371.371 0 01.313-.249 34.565 34.565 0 018.954 0 .387.387 0 01.319.249 6.342 6.342 0 010 4.875zm-12.368 0a.375.375 0 01-.313.255 34.568 34.568 0 01-8.955 0 .383.383 0 01-.319-.255 6.342 6.342 0 010-4.874.387.387 0 01.319-.249 34.567 34.567 0 018.955 0 .378.378 0 01.313.249 6.29 6.29 0 01-.001 4.875z" fill="#374149"/></svg>