<svg xmlns="http://www.w3.org/2000/svg" width="33.082" height="34.702"><g fill="#374149"><path data-name="パス 1515" d="M15.184 14.24v.012h2.5V3.88a1.382 1.382 0 011.383-1.38c.045 0 .091 0 .137.007a1.436 1.436 0 011.241 1.437v.424h2.5v-.433A3.918 3.918 0 0019.432.018Q19.248 0 19.064 0a3.884 3.884 0 00-3.88 3.88v10.36z"/><path data-name="パス 1516" d="M22.947 6.256V5.011h-2.5v1.245a.583.583 0 00.583.584h1.335a.584.584 0 00.582-.584z"/><path data-name="パス 1517" d="M11.811 14.251l.269-2.577a.912.912 0 00-.908-.993H9.666a.912.912 0 00-.908.993l.269 2.577z"/><path data-name="パス 1518" d="M21.003 11.671l.268 2.577h2.785l.269-2.577a.912.912 0 00-.908-.993h-1.505a.911.911 0 00-.909.993z"/><path data-name="パス 1519" d="M0 16.55v4.701h33.082v-4.7z"/><path data-name="パス 1520" d="M1.043 23.092v10.286a1.328 1.328 0 001.329 1.328h28.341a1.329 1.329 0 001.33-1.328V23.092zm2.714 7.951v-3.974a.193.193 0 01.363-.094 14.906 14.906 0 002.115 2.915 15.126 15.126 0 001.916 1.747.194.194 0 01-.12.347H4.698a.942.942 0 01-.943-.941z"/></g></svg>