<svg xmlns="http://www.w3.org/2000/svg" width="30.032" height="27.469"><path data-name="パス 107" d="M27.344 21.87H2.688v-8.709a1.3 1.3 0 00-1.3-1.3H1.3a1.3 1.3 0 00-1.3 1.3v14.288h2.688v-2.892h24.656v2.909h2.688v-5.6z" fill="#374149"/><path data-name="パス 108" d="M12.32 16.064v3.909h16.026v-2.459a2.18 2.18 0 00-2.18-2.18L14.5 13.881a2.18 2.18 0 00-2.18 2.183z" fill="#374149"/><circle data-name="楕円形 5" cx="3.246" cy="3.246" r="3.246" transform="translate(4.596 13.484)" fill="#374149"/><path data-name="パス 109" d="M5.17 1.379v.009l.822-.13.469-.069-1.058 2.1.122.771 2.77-.438h.013l-.152-.961-.867.137-.5.073L7.858.758l-.121-.762-2.7.427h-.015z" fill="#374149"/><path data-name="パス 110" d="M12.808 6.6l-.861-.19-.487-.113 1.765-1.583.167-.754-2.676-.591h-.015l-.21.951.815.18.462.107-1.758 1.567-.169.764 2.757.609z" fill="#374149"/><path data-name="パス 111" d="M6.387 9.034v.009l.765-.182.437-.1-.845 2.06.17.718 2.592-.616-.21-.881v-.009l-.807.192-.462.1.848-2.07-.169-.709-2.53.6z" fill="#374149"/><path data-name="パス 112" d="M4.453 9.863l-2.566-5.33-.01-.022v-.009l-.845.407 2.581 5.36z" fill="#374149"/><path data-name="パス 113" d="M13.39 10.788l.788.51 3.621-5.586-.778-.5-.008-.005z" fill="#374149"/></svg>