<svg xmlns="http://www.w3.org/2000/svg" width="36.766" height="30.509"><g fill="#374149"><path data-name="パス 76" d="M36.7 26.556a3.459 3.459 0 00-.617-1.135 2.864 2.864 0 01-.145-1.5 39.988 39.988 0 00-.635-17.917 2.982 2.982 0 01.047-1.392 4.291 4.291 0 00.438-3.027 2.5 2.5 0 00-2.45-1.582c-.059 0-.116.005-.174 0h-.049a3.936 3.936 0 00-1.978.693l-.12.1a2.771 2.771 0 01-1.129.187.468.468 0 01-.115-.011 105.32 105.32 0 00-11.39-.977A105.11 105.11 0 007 .978a.529.529 0 01-.12.011A2.618 2.618 0 015.7.781 4.152 4.152 0 003.859.033a2.925 2.925 0 00-1.688.512 2.962 2.962 0 00-1.31 1.811 2.244 2.244 0 00.355 1.713 3.624 3.624 0 01.314 1.408 2.009 2.009 0 01-.072.531 39.278 39.278 0 00-.629 17.911 2.863 2.863 0 01-.146 1.5 3.337 3.337 0 00-.654 1.314 3.319 3.319 0 00.956 2.73 3.155 3.155 0 001.988 1.022 2.267 2.267 0 00.6-.024 2.179 2.179 0 001.308-.751l.113-.095a2.882 2.882 0 011.222-.224.767.767 0 01.118.018 59.816 59.816 0 0012.05 1.1 59.811 59.811 0 0012.049-1.1.891.891 0 01.124-.018 2.708 2.708 0 011.248.241l.127.129a2.138 2.138 0 001.081.664 2.326 2.326 0 00.782.059 3.19 3.19 0 001.994-1.028 3.28 3.28 0 00.911-2.9zm-20.155 1.268q-1.08-.029-2.164-.092-.382-.022-.764-.049-1.094-.075-2.2-.186-.367-.037-.736-.078-1.138-.126-2.293-.289-.335-.048-.673-.1a74.3 74.3 0 01-1.185-.185 2.737 2.737 0 00-.388-.047c-.073-.006-.152-.006-.225-.006a4.148 4.148 0 00-2.716.875l-.173.175a.154.154 0 01-.091.064l-.068.006a.513.513 0 01-.285-.146.489.489 0 01-.139-.391.373.373 0 01.1-.14 4.87 4.87 0 00.7-3.66 40.188 40.188 0 01.523-17.242 4.254 4.254 0 00-.461-3.4l-.054-.06c-.032-.027-.026-.082-.025-.115a.511.511 0 01.225-.34.361.361 0 01.182-.071h.022a.191.191 0 01.141.049l.139.159a3.951 3.951 0 002.557.8c.077 0 .148-.006.219-.006.126-.011.252-.022.373-.038a71.583 71.583 0 0111.3-.917 71.325 71.325 0 0111.3.917c.121.017.247.027.373.038.071 0 .148.006.219.006a3.919 3.919 0 002.557-.8l.16-.181a.169.169 0 01.114-.027h.005a.478.478 0 01.388.3.261.261 0 01-.038.291A4.267 4.267 0 0033 6.333a40.545 40.545 0 01.53 17.244 4.843 4.843 0 00.735 3.7.182.182 0 01.052.076.471.471 0 01-.139.415.478.478 0 01-.3.146c-.017 0-.04-.006-.057-.006a.186.186 0 01-.074-.058l-.173-.181a4.149 4.149 0 00-2.716-.875c-.079 0-.158 0-.231.006-.135.006-.259.024-.388.041a71.52 71.52 0 01-11.859 1.01c-.36 0-.721-.006-1.081-.011l-.754-.016z"/><path data-name="パス 77" d="M20.343 24.962a70.661 70.661 0 009.41-.938h.016a1.182 1.182 0 001-.955c.006-.035.012-.067.019-.095a37.056 37.056 0 00.494-10.466.95.95 0 00-.042-.165c0-.016-.008-.033-.013-.049a.925.925 0 00-1.138-.609.856.856 0 00-.222.1.893.893 0 00-.338.371 27.45 27.45 0 01-2.936 4.769 53.353 53.353 0 01-6.712 6.8.706.706 0 00.462 1.237z"/><path data-name="パス 78" d="M5.461 15.765h.005a.291.291 0 00.291-.286q.005-.289.014-.578a.29.29 0 00-.281-.3.3.3 0 00-.3.281q-.01.293-.015.587a.292.292 0 00.286.296z"/><path data-name="パス 79" d="M5.701 11.697h.033a.292.292 0 00.289-.259q.032-.288.069-.574a.291.291 0 10-.577-.074q-.037.29-.07.583a.291.291 0 00.256.324z"/><path data-name="パス 80" d="M6.322 22.954a.291.291 0 10-.572.107q.055.292.114.577a.291.291 0 10.569-.119q-.056-.279-.111-.565z"/><path data-name="パス 81" d="M5.876 19.522q-.023-.287-.041-.576a.291.291 0 10-.581.037q.019.294.042.585a.291.291 0 00.29.268h.023a.291.291 0 00.267-.314z"/><path data-name="パス 82" d="M6.621 6.544a.289.289 0 00-.354.21q-.072.282-.14.571a.291.291 0 00.217.349.3.3 0 00.066.008.292.292 0 00.283-.225q.067-.283.137-.56a.291.291 0 00-.209-.353z"/></g></svg>