<svg xmlns="http://www.w3.org/2000/svg" width="23.949" height="34.701"><path data-name="パス 83" d="M21.944 0H2.005A2 2 0 000 2.005v28.408a2 2 0 002.005 2.005h19.939a2 2 0 002.005-2.005V2.005A2 2 0 0021.944 0zm0 28.017H2.005v-5.735h5.3l.929 1.37h7.921l.929-1.37h4.856v5.735zM2.005 18.91V2.005h12.74v16.9zm19.939 1.337v.7H2.005v-.7zm0-1.377v.041h-6.2V2.005h6.2z" fill="#374149"/><path data-name="パス 84" d="M2.168 33.086h-.011v1.281a.334.334 0 00.334.334h1.337a.334.334 0 00.334-.334v-1.281H2.168z" fill="#374149"/><path data-name="パス 85" d="M19.798 33.086h-.011v1.281a.334.334 0 00.334.334h1.337a.334.334 0 00.334-.334v-1.281h-1.995z" fill="#374149"/><path data-name="パス 86" d="M8.074 3.533H3.907a.321.321 0 00-.321.321v4.168a.208.208 0 00.354.15l4.284-4.285a.208.208 0 00-.15-.354z" fill="#374149"/></svg>