<svg xmlns="http://www.w3.org/2000/svg" width="38.426" height="27.263"><path data-name="パス 36" d="M0 0v24.8h5.784v.962a1.5 1.5 0 001.5 1.5h.424a1.5 1.5 0 001.5-1.5V24.8h20.001v.962a1.5 1.5 0 001.5 1.5h.424a1.5 1.5 0 001.5-1.5V24.8h5.784V0zm29.8 19.34a2.054 2.054 0 01-2.053 2.054H5.457A2.055 2.055 0 013.4 19.34V5.456a2.056 2.056 0 012.057-2.053h22.29A2.056 2.056 0 0129.8 5.456zm1.6-15.2h1.849v1.84H31.4zm0 2.761h1.849v1.841H31.4zm0 2.761h1.849v1.837H31.4zm2.423 9.486a2.409 2.409 0 112.409-2.409 2.407 2.407 0 01-2.405 2.412zm2.424-7.649H34.4V9.664h1.849zm0-2.758H34.4V6.903h1.849zm0-2.761H34.4V4.143h1.849z" fill="#374149"/><path data-name="パス 37" d="M27.747 4.882h-3.46l-7 7.759-.021.023-1.1-.988 3.668-4.07 2.454-2.711h-.011l.011-.012h-3.916L9.01 15.27l-.036.04-1.1-.991 5.088-5.644 3.419-3.78h-.011l.011-.012H5.456a.575.575 0 00-.574.574V19.34a.575.575 0 00.574.574h22.29a.575.575 0 00.574-.574V5.46a.574.574 0 00-.573-.578z" fill="#374149"/></svg>