<svg xmlns="http://www.w3.org/2000/svg" width="49.479" height="37.662"><g fill="#374149"><path data-name="パス 88" d="M2.885 22.61a.4.4 0 00.033.339l6.99 11.634a.4.4 0 00.285.19.4.4 0 00.33-.1l1.294-1.169-2.22-3.693-1.288.199-2.104-3.501.781-1.044-2.22-3.695-1.64.595a.405.405 0 00-.241.244z"/><path data-name="パス 89" d="M12.283 35.317a.662.662 0 00.129-.828l-.36-.6-.07-.116-.008-.013-1.251 1.13a.7.7 0 01-1.068-.16L2.666 23.1a.705.705 0 01-.06-.593.694.694 0 01.422-.424l1.298-.468.271-.097.013-.007-.434-.723a.663.663 0 00-.791-.28l-2.704.978a.662.662 0 00-.34.963l8.8 14.647a.662.662 0 001.01.15z"/><path data-name="パス 90" d="M9.582 22.39l.242.404-1.837 2.452-.171.238-.573.767-.37.492 1.544 2.572.609-.097.946-.146.287-.046 3.03-.464.243.403.688-.323 11.397-5.265 3.996-5.864-.016-.026L47.197 5.6a.194.194 0 00.058-.261l-.978-1.629a.2.2 0 00-.262-.076l-11.78 6.248-6.983 3.697-.007-.012-7.06.77-10 7.592zm18.63-6.4l-.284-.472 2.874-1.727.286.476-2.874 1.727zm-7.452-.217l5.696-.616 1.385 2.305-3.22 4.736L14.12 27.05l-2.576-4.286z"/><path data-name="パス 91" d="M19.935 19.207l4.797.466a.578.578 0 00.531-.25l.917-1.346a.578.578 0 00.019-.623l-.476-.792a.578.578 0 00-.558-.276l-3.545.387a.581.581 0 00-.283.112l-1.695 1.287a.578.578 0 00.293 1.035z"/></g></svg>