<svg xmlns="http://www.w3.org/2000/svg" width="38.65" height="25.528"><path data-name="パス 61" d="M.01 3.997L0 4.009h38.65L35.214 0H3.437L1.363 2.42 0 3.997z" fill="#374149"/><path data-name="パス 62" d="M0 6.571v.021h38.65V5.136H0z" fill="#374149"/><path data-name="パス 63" d="M3.642 8.057h-2.33v17.475h2.34v-.024l1.042-2.4V8.057H3.642z" fill="#374149"/><path data-name="パス 64" d="M34.997 8.057h-1.041v15.048l1.041 2.4v.024h2.34V8.057h-2.34z" fill="#374149"/><path data-name="パス 65" d="M19.713 8.056h-.012v6.389h12.38V8.056H19.713zm5.387 3.708v-1.033h1.576v1.033z" fill="#374149"/><path data-name="パス 66" d="M19.713 15.913h-.012V22.3h12.38v-6.389H19.713zm5.387 3.708v-1.033h1.576v1.033z" fill="#374149"/></svg>