<svg xmlns="http://www.w3.org/2000/svg" width="53" height="52"><defs><clipPath id="a"><path data-name="長方形 1986" fill="none" stroke="#b2961a" stroke-width="2" d="M-.005.474h53v52h-53z"/></clipPath></defs><g data-name="グループ 296" clip-path="url(#a)" fill="none" stroke="#b2961a" stroke-linecap="round" stroke-linejoin="round" stroke-width="2" transform="translate(.005 -.474)"><path data-name="パス 290" d="M42.909 45.768l-5.172-24.856c3.932-3.678 6.845-6.408 6.845-6.408 3.52-3.52 7.478-9.078 6.827-12.483a1.04 1.04 0 00-.3-.554 1.053 1.053 0 00-.559-.3c-3.401-.651-8.955 3.305-12.48 6.828 0 0-2.72 2.907-6.4 6.851L6.807 9.669a3.287 3.287 0 00-2.994.893l-1.235 1.233a.58.58 0 00.147.929l14.67 7.371c.24.117 5.49 4.169 5.49 4.169L12.014 36.432l-9.27-.7a.959.959 0 00-.9.251l-.629.627a.409.409 0 00.089.642l9.7 4.325 4.325 9.7a.409.409 0 00.642.089l.625-.628a.958.958 0 00.252-.9l-.7-9.273c.355-.235 6.456-5.513 12.18-10.851 0 0 4.04 5.236 4.156 5.477l7.372 14.664a.58.58 0 00.929.149l1.237-1.236a3.288 3.288 0 00.887-3z"/><path data-name="線 173" d="M33.115 13.293l-6.668 7.213"/><path data-name="線 174" d="M39.288 19.465l-7.213 6.668"/></g></svg>