<svg xmlns="http://www.w3.org/2000/svg" width="79.276" height="72.748"><defs><clipPath id="a"><path data-name="長方形 1976" fill="none" stroke="#038e8d" stroke-width="2" d="M0 0h79.276v72.748H0z"/></clipPath></defs><g data-name="グループ 275" clip-path="url(#a)" fill="none" stroke="#038e8d" stroke-linecap="round" stroke-linejoin="round" stroke-width="2"><path data-name="パス 276" d="M77.595 33.124l-11.556-9.547V6.709h-9.906v8.686L39.623 1.756 1.651 33.124"/><path data-name="パス 277" d="M4.953 71.096v-4.139c0-7.418 3.685-9.344 8.937-10.451a3.291 3.291 0 002.62-3.219v-1.038"/><path data-name="パス 278" d="M74.294 67.963v-4.308c0-7.418-3.685-9.344-8.937-10.451a3.291 3.291 0 01-2.62-3.219v-1.038"/><path data-name="パス 279" d="M28.068 57.161a24.406 24.406 0 00-2.518-.654 3.29 3.29 0 01-2.62-3.219v-.961"/><path data-name="パス 280" d="M28.066 70.083c0-3.939.383-6.043 5.635-7.149a3.29 3.29 0 002.62-3.219v-1.058"/><path data-name="パス 281" d="M51.18 70.083c0-3.939-.383-6.043-5.635-7.149a3.29 3.29 0 01-2.62-3.219v-1.058"/><path data-name="パス 282" d="M16.51 52.249a8.255 8.255 0 116.421.078"/><path data-name="パス 283" d="M56.133 48.947a8.255 8.255 0 116.6 0"/><path data-name="パス 284" d="M51.754 53.629c.563-.157 1.151-.3 1.758-.424a3.293 3.293 0 002.62-3.219v-1.039"/><path data-name="パス 285" d="M36.319 58.656a6.6 6.6 0 116.6 0"/></g></svg>