<svg xmlns="http://www.w3.org/2000/svg" width="26.786" height="21.764"><path d="M2.511 0a2.511 2.511 0 102.511 2.511A2.511 2.511 0 002.511 0zm0 8.371a2.511 2.511 0 102.511 2.511 2.511 2.511 0 00-2.511-2.511zm0 8.371a2.511 2.511 0 102.511 2.511 2.511 2.511 0 00-2.511-2.511zm23.438.837H9.208a.837.837 0 00-.837.837v1.674a.837.837 0 00.837.837h16.741a.837.837 0 00.837-.837v-1.675a.837.837 0 00-.837-.837zm0-16.741H9.208a.837.837 0 00-.837.837v1.673a.837.837 0 00.837.837h16.741a.837.837 0 00.837-.837V1.674a.837.837 0 00-.837-.837zm0 8.371H9.208a.837.837 0 00-.837.837v1.674a.837.837 0 00.837.837h16.741a.837.837 0 00.837-.837v-1.675a.837.837 0 00-.837-.837z" fill="#fff"/></svg>