<svg xmlns="http://www.w3.org/2000/svg" width="90" height="93.175"><defs><clipPath id="a"><path data-name="長方形 2416" fill="none" stroke="#b2961a" stroke-width="2" d="M.462-.241h60v56h-60z"/></clipPath></defs><text transform="translate(45 91.174)" fill="#b2961a" font-size="17" font-family="HiraginoSans-W3, Hiragino Sans" letter-spacing=".05em"><tspan x="-44.2" y="0">お試し同棲</tspan></text><g data-name="グループ 321"><g data-name="グループ 320" transform="translate(14.538 .24)" clip-path="url(#a)" fill="none" stroke="#b2961a" stroke-linecap="round" stroke-linejoin="round" stroke-width="2"><path data-name="パス 413" d="M7.572 26.837V54.6h45.43V26.837"/><path data-name="パス 414" d="M59.311 25.575l-8.834-7.3V5.384h-7.571v6.639L30.287 1.598 1.262 25.575"/><path data-name="パス 415" d="M30.286 45.451c6.542-4.389 12.619-8.291 12.619-14.326 0-4.423-2.743-7.758-7.168-7.758a7.031 7.031 0 00-5.452 3.368 7.029 7.029 0 00-5.452-3.368c-4.423 0-7.166 3.335-7.166 7.758 0 6.035 6.078 9.937 12.619 14.326z"/></g></g></svg>