<svg xmlns="http://www.w3.org/2000/svg" width="19.877" height="17.668"><path d="M19.877.828v4.417a.829.829 0 01-1.414.586L17.231 4.6 8.827 13a.828.828 0 01-1.171 0l-.781-.781a.828.828 0 010-1.171l8.4-8.4-1.228-1.234A.829.829 0 0114.632 0h4.416a.828.828 0 01.829.828zm-5.831 8.517l-.552.552a.828.828 0 00-.243.586v4.977H2.209V4.417h9.11a.828.828 0 00.586-.243l.552-.552a.828.828 0 00-.586-1.414H1.656A1.656 1.656 0 000 3.865v12.147a1.656 1.656 0 001.656 1.656H13.8a1.656 1.656 0 001.656-1.656V9.93a.828.828 0 00-1.41-.585z" fill="#e07e67"/></svg>