<svg xmlns="http://www.w3.org/2000/svg" width="18.667" height="25.757"><path d="M14.713 19.78l-.061-.116.031-.044.031-.044a7.176 7.176 0 001.537-.862 2.542 2.542 0 00.925-1.509l.116-.531V2.959a2.1 2.1 0 00-.294-1.024 3.927 3.927 0 00-.734-.955 4.212 4.212 0 00-.98-.7A2.293 2.293 0 0014.242 0H4.428a2.328 2.328 0 00-1.013.262 4.2 4.2 0 00-1 .675 3.73 3.73 0 00-.747.92 2.049 2.049 0 00-.294 1.016V16.79a1.8 1.8 0 00.176.732 3.6 3.6 0 00.44.715 4.53 4.53 0 00.573.618 3.891 3.891 0 00.6.453c.095.04.268.1.514.179s.354.135.335.172l-4.017 6.1h2.348l2.932-4.25h8.089l2.929 4.25h2.374zM7.004 1.171a.468.468 0 01.147-.309.4.4 0 01.293-.159h3.752a.609.609 0 01.235.114c.116.078.174.156.174.234v1.437a.332.332 0 01-.146.263.446.446 0 01-.263.121h-3.78l-.119-.092a1.07 1.07 0 01-.19-.162.293.293 0 01-.1-.215zM3.223 5.186a1.352 1.352 0 01.133-.573 2.251 2.251 0 01.337-.513 1.694 1.694 0 01.481-.379 1.214 1.214 0 01.574-.147h9.116a1.352 1.352 0 01.525.115 1.8 1.8 0 01.485.323 1.839 1.839 0 01.352.442.99.99 0 01.13.5v3.104a.991.991 0 01-.145.51 1.582 1.582 0 01-.381.444 2.192 2.192 0 01-.5.3 1.209 1.209 0 01-.526.118h-9l-.148-.026a.887.887 0 01-.177-.061 1.486 1.486 0 01-.877-.528 1.44 1.44 0 01-.382-.966V5.186zm2.713 12.1a1.511 1.511 0 01-1.128.468 1.423 1.423 0 01-1.1-.468 1.646 1.646 0 01-.424-1.145 1.479 1.479 0 01.439-1.061 1.447 1.447 0 011.084-.457 1.611 1.611 0 011.128.424 1.477 1.477 0 01.454 1.131 1.544 1.544 0 01-.453 1.111zm6.711 0a1.589 1.589 0 01-.456-1.145 1.4 1.4 0 01.484-1.1 1.679 1.679 0 011.131-.424 1.437 1.437 0 011.1.457 1.515 1.515 0 01.426 1.067 1.614 1.614 0 01-.441 1.145 1.465 1.465 0 01-1.117.471 1.5 1.5 0 01-1.126-.468z" fill="#fff"/></svg>