<svg xmlns="http://www.w3.org/2000/svg" width="31.859" height="28.891"><path d="M15.93 0C7.131 0 0 6.004 0 13.413a12.113 12.113 0 003.547 8.429 16.527 16.527 0 01-3.41 6.178.527.527 0 00-.093.561.487.487 0 00.454.31 13.949 13.949 0 008.749-3.315 18.387 18.387 0 006.683 1.251c8.8 0 15.93-6 15.93-13.413S24.728 0 15.93 0zM7.965 15.477a2.065 2.065 0 111.991-2.064 2.026 2.026 0 01-1.991 2.064zm7.965 0a2.065 2.065 0 111.991-2.064 2.026 2.026 0 01-1.991 2.064zm7.965 0a2.065 2.065 0 111.991-2.064 2.026 2.026 0 01-1.992 2.064z" fill="#fff"/></svg>