<svg xmlns="http://www.w3.org/2000/svg" width="79.276" height="72.6"><defs><clipPath id="a"><path data-name="長方形 1973" fill="none" stroke="#038e8d" stroke-width="2" d="M0 0h79.276v72.6H0z"/></clipPath></defs><path data-name="線 171" fill="none" stroke="#038e8d" stroke-linecap="round" stroke-linejoin="round" stroke-width="2" d="M21.459 15.974v20.134"/><path data-name="線 172" fill="none" stroke="#038e8d" stroke-linecap="round" stroke-linejoin="round" stroke-width="2" d="M57.775 36.108V15.974"/><g data-name="グループ 271"><g data-name="グループ 270" clip-path="url(#a)"><path data-name="パス 269" d="M63.12 21.036L39.617 1.62 16.114 21.036" fill="none" stroke="#038e8d" stroke-linecap="round" stroke-linejoin="round" stroke-width="2"/></g></g><path data-name="長方形 1974" fill="none" stroke="#038e8d" stroke-linecap="round" stroke-linejoin="round" stroke-width="2" d="M31.711 18.645h15.855V34.5H31.711z"/><g data-name="グループ 273"><g data-name="グループ 272" clip-path="url(#a)" fill="none" stroke="#038e8d" stroke-linecap="round" stroke-linejoin="round" stroke-width="2"><path data-name="パス 270" d="M21.268 53.165L11 42.897a4.192 4.192 0 01-1.189-2.39l-1.3-12a3.541 3.541 0 00-5.951-2.55c-1.1 1.1-.939 2.78-.85 4.251l1.7 13.6a4.885 4.885 0 001.7 3.4l9.85 9.85a5.19 5.19 0 011.542 2.9v4.381"/><path data-name="パス 271" d="M12.25 44.17a3.607 3.607 0 015.1-5.1l11.816 11.839a7.107 7.107 0 012.2 5.185v8.254"/><path data-name="パス 272" d="M34.665 70.947v-6.6H13.206v6.6"/><path data-name="パス 273" d="M57.966 53.165l10.267-10.268a4.192 4.192 0 001.189-2.39l1.3-12a3.541 3.541 0 015.951-2.55c1.1 1.1.939 2.78.85 4.251l-1.7 13.6a4.885 4.885 0 01-1.7 3.4l-9.85 9.85a5.19 5.19 0 00-1.542 2.9v4.381"/><path data-name="パス 274" d="M66.985 44.17a3.607 3.607 0 00-5.1-5.1L50.071 50.909a7.107 7.107 0 00-2.2 5.185v8.254"/><path data-name="パス 275" d="M44.569 70.947v-6.6h21.459v6.6"/></g></g></svg>