<svg xmlns="http://www.w3.org/2000/svg" width="25.367" height="35"><path d="M19.994 26.875l-.083-.158.042-.059.042-.059a9.752 9.752 0 002.089-1.171 3.454 3.454 0 001.256-2.048l.157-.721V4.021a2.856 2.856 0 00-.4-1.391 5.337 5.337 0 00-1-1.3 5.724 5.724 0 00-1.323-.95A3.116 3.116 0 0019.353 0H6.017a3.164 3.164 0 00-1.376.356 5.7 5.7 0 00-1.354.918 5.068 5.068 0 00-1.013 1.25 2.784 2.784 0 00-.4 1.38v18.912a2.44 2.44 0 00.239 1 4.9 4.9 0 00.6.972 6.156 6.156 0 00.779.84 5.288 5.288 0 00.816.616c.129.054.364.137.7.243s.48.183.456.234L0 35.001h3.184l3.984-5.775h10.993l3.98 5.775h3.226zM9.518 1.591a.636.636 0 01.2-.42.544.544 0 01.4-.215h5.1a.828.828 0 01.32.156c.157.107.237.212.237.318v1.95a.452.452 0 01-.2.358.606.606 0 01-.358.165h-5.143l-.159-.123a1.454 1.454 0 01-.258-.22.4.4 0 01-.139-.293zM4.38 7.047a1.838 1.838 0 01.18-.778 3.058 3.058 0 01.458-.7 2.3 2.3 0 01.656-.514 1.65 1.65 0 01.78-.2h12.385a1.838 1.838 0 01.713.156 2.45 2.45 0 01.659.44 2.5 2.5 0 01.478.6 1.345 1.345 0 01.177.674v4.222a1.347 1.347 0 01-.2.694 2.15 2.15 0 01-.518.6 2.978 2.978 0 01-.678.412 1.643 1.643 0 01-.715.161H6.533l-.2-.036a1.2 1.2 0 01-.24-.083 2.02 2.02 0 01-1.192-.717 1.957 1.957 0 01-.519-1.312V7.047zm3.687 16.448a2.054 2.054 0 01-1.533.636 1.933 1.933 0 01-1.5-.636 2.237 2.237 0 01-.576-1.556 2.01 2.01 0 01.6-1.45 1.966 1.966 0 011.473-.621 2.19 2.19 0 011.533.576 2.007 2.007 0 01.62 1.536 2.1 2.1 0 01-.617 1.514zm9.119 0a2.159 2.159 0 01-.619-1.556 1.9 1.9 0 01.657-1.5 2.281 2.281 0 011.536-.576 1.952 1.952 0 011.492.621 2.058 2.058 0 01.579 1.45 2.193 2.193 0 01-.6 1.556 1.991 1.991 0 01-1.516.636 2.044 2.044 0 01-1.53-.636z" fill="#84ccc1"/></svg>