<svg xmlns="http://www.w3.org/2000/svg" width="31.5" height="36"><path d="M10.266 26.016A3.255 3.255 0 017.875 27a3.381 3.381 0 01-2.391-5.766 3.255 3.255 0 012.391-.984 3.381 3.381 0 012.391 5.766zm-1.618-3.164a.936.936 0 00-.773-.352A1.144 1.144 0 109 23.625a.936.936 0 00-.352-.773zm17.367 3.164a3.381 3.381 0 01-4.781-4.781 3.381 3.381 0 014.781 4.781zM24.4 22.852a.936.936 0 00-.775-.352 1.144 1.144 0 101.125 1.125.936.936 0 00-.35-.773zM22.5 0a10.335 10.335 0 016.258 2A5.8 5.8 0 0131.5 6.75v18a4.825 4.825 0 01-.387 1.9 5.6 5.6 0 01-1.125 1.688 10.677 10.677 0 01-1.652 1.406A9.3 9.3 0 0126.3 30.8a9.868 9.868 0 01-2.32.563l3.864 3.937a.4.4 0 01-.281.7h-1.829a.668.668 0 01-.562-.281L20.883 31.5H10.617l-4.289 4.219a.668.668 0 01-.562.281H3.938a.4.4 0 01-.281-.7l3.867-3.937a10.053 10.053 0 01-5.309-2.32A5.568 5.568 0 010 24.75v-18A5.781 5.781 0 012.777 2 10.381 10.381 0 019 0zM2.25 9v6.75h12.375V9zm27 15.75V18h-27v6.75q0 1.688 2.109 3.094A8.191 8.191 0 009 29.25h13.5a8.191 8.191 0 004.641-1.406q2.109-1.406 2.109-3.094zm0-9V9H16.875v6.75zm-27-9h27a4.007 4.007 0 00-1.934-3.023A7.7 7.7 0 0022.5 2.25H9a8.191 8.191 0 00-4.641 1.406Q2.25 5.063 2.25 6.75z" fill="#ad6554"/></svg>