<svg xmlns="http://www.w3.org/2000/svg" width="34.875" height="34.875"><path data-name="パス 1361" d="M5.063 5.138A16.866 16.866 0 0117.438.001a16.808 16.808 0 0112.34 5.1 16.808 16.808 0 015.1 12.34 16.808 16.808 0 01-5.1 12.34 16.808 16.808 0 01-12.34 5.1A16.808 16.808 0 015.1 29.778 16.808 16.808 0 010 17.438a16.75 16.75 0 015.063-12.3zM6.68 28.196a14.8 14.8 0 0010.758 4.43 14.622 14.622 0 0010.722-4.465 14.622 14.622 0 004.465-10.723A14.622 14.622 0 0028.16 6.715a14.622 14.622 0 00-10.722-4.464A14.622 14.622 0 006.715 6.715 14.622 14.622 0 002.25 17.438a14.8 14.8 0 004.43 10.758zm18.914-17.93a5.394 5.394 0 011.934 4.078 5.5 5.5 0 01-1.512 4.219l-7.664 8.016a1.2 1.2 0 01-1.828 0l-7.665-8.016a5.5 5.5 0 01-1.512-4.219 5.394 5.394 0 011.934-4.078A5 5 0 0113.113 9a5.55 5.55 0 013.551 1.758l.773.844.773-.844a5.761 5.761 0 01.879-.7 7.07 7.07 0 011.336-.668 5.8 5.8 0 011.617-.387 4.746 4.746 0 011.758.211 4.582 4.582 0 011.794 1.052zm-1.2 6.75a3.611 3.611 0 00.949-2.461 3.358 3.358 0 00-1.16-2.6 2.758 2.758 0 00-1.793-.7 3.224 3.224 0 00-1.582.352 3.433 3.433 0 00-.984.773l-2.386 2.458-2.391-2.461a3.348 3.348 0 00-1.9-1.055 3.427 3.427 0 00-2.461.633 3.358 3.358 0 00-1.16 2.6 3.611 3.611 0 00.949 2.461l6.961 7.313z" fill="#863553"/></svg>