<svg xmlns="http://www.w3.org/2000/svg" width="25" height="25"><path d="M12.505 6.091a6.41 6.41 0 106.408 6.41 6.4 6.4 0 00-6.408-6.41zm0 10.577a4.167 4.167 0 114.166-4.167 4.174 4.174 0 01-4.166 4.162zm8.163-10.839a1.495 1.495 0 11-1.495-1.5 1.491 1.491 0 011.495 1.5zm4.244 1.517a7.4 7.4 0 00-2.019-5.238A7.445 7.445 0 0017.656.089c-2.064-.117-8.249-.117-10.312 0a7.434 7.434 0 00-5.239 2.013A7.424 7.424 0 00.088 7.341c-.117 2.064-.117 8.251 0 10.315a7.4 7.4 0 002.017 5.237 7.454 7.454 0 005.239 2.02c2.064.117 8.249.117 10.312 0a7.4 7.4 0 005.237-2.019 7.448 7.448 0 002.019-5.238c.117-2.064.117-8.245 0-10.309zM22.246 19.87a4.218 4.218 0 01-2.376 2.376c-1.645.653-5.549.5-7.368.5s-5.728.145-7.368-.5a4.218 4.218 0 01-2.376-2.376c-.653-1.646-.5-5.551-.5-7.369s-.145-5.729.5-7.369a4.218 4.218 0 012.377-2.377c1.645-.653 5.549-.5 7.368-.5s5.728-.145 7.368.5a4.218 4.218 0 012.376 2.376c.653 1.646.5 5.551.5 7.369s.151 5.73-.501 7.37z" fill="#fff"/></svg>