<svg xmlns="http://www.w3.org/2000/svg" width="71" height="53"><defs><clipPath id="a"><path data-name="長方形 1994" fill="none" stroke="#b2961a" stroke-width="2" d="M0 0h71v53H0z"/></clipPath></defs><g data-name="グループ 305" clip-path="url(#a)" fill="none" stroke="#b2961a" stroke-linecap="round" stroke-linejoin="round" stroke-width="2"><path data-name="パス 298" d="M6.386 41.504V4.665a2.946 2.946 0 012.947-2.947h54.521a2.946 2.946 0 012.947 2.947v36.839"/><path data-name="線 177" d="M47 47H25"/><path data-name="パス 299" d="M21.121 41.504H1.965c0 4.124 3.243 10.315 7.368 10.315h53.048c4.124 0 7.368-6.19 7.368-10.315H50.592"/><path data-name="パス 300" d="M6.386 41.504V4.665a2.946 2.946 0 012.947-2.947h54.521a2.946 2.946 0 012.947 2.947v36.839"/><path data-name="線 178" d="M47 47H25"/><path data-name="パス 301" d="M21.121 41.504H1.965c0 4.124 3.243 10.315 7.368 10.315h53.048c4.124 0 7.368-6.19 7.368-10.315H50.592"/></g></svg>