<svg xmlns="http://www.w3.org/2000/svg" width="27" height="36"><path d="M19.688 16.875a.5.5 0 01.563.563v1.125a.5.5 0 01-.562.563h-7.876a.5.5 0 01-.562-.562v-1.126a.5.5 0 01.563-.562zm0 6.75a.5.5 0 01.563.563v1.125a.5.5 0 01-.562.563h-7.876a.5.5 0 01-.562-.562v-1.126a.5.5 0 01.563-.562zM6.68 16.8a1.7 1.7 0 012.391 0 1.688 1.688 0 01-1.2 2.883A1.69 1.69 0 016.68 16.8zm0 6.75a1.7 1.7 0 012.391 0 1.688 1.688 0 01-1.2 2.883 1.69 1.69 0 01-1.2-2.883zM23.625 4.5A3.361 3.361 0 0127 7.875v24.75A3.361 3.361 0 0123.625 36H3.375a3.255 3.255 0 01-2.391-.984A3.255 3.255 0 010 32.625V7.875a3.255 3.255 0 01.984-2.391A3.255 3.255 0 013.375 4.5h6.258a2.312 2.312 0 01-.07-.562 3.789 3.789 0 011.16-2.777 3.9 3.9 0 015.555 0 3.789 3.789 0 011.16 2.777 2.312 2.312 0 01-.07.563zM14.7 2.742a1.688 1.688 0 00-2.883 1.2 1.688 1.688 0 103.375 0 1.627 1.627 0 00-.492-1.2zm10.05 29.883V7.875a1.083 1.083 0 00-1.125-1.125H20.25v1.406a.746.746 0 01-.844.844H7.594a.746.746 0 01-.844-.844V6.75H3.375A1.083 1.083 0 002.25 7.875v24.75a1.083 1.083 0 001.125 1.125h20.25a1.083 1.083 0 001.125-1.125z" fill="#b2961a"/></svg>