<svg xmlns="http://www.w3.org/2000/svg" width="20" height="20"><path d="M9.375 2.857h2.5a.674.674 0 00.625-.714V.714A.674.674 0 0011.875 0h-2.5a.674.674 0 00-.625.714v1.429a.674.674 0 00.625.714zm0 5.714h5A.674.674 0 0015 7.857V6.429a.674.674 0 00-.625-.714h-5a.674.674 0 00-.625.714v1.429a.674.674 0 00.625.713zm10 8.571h-10a.674.674 0 00-.625.714v1.429a.674.674 0 00.625.714h10a.674.674 0 00.625-.713v-1.429a.674.674 0 00-.625-.714zm-10-2.857h7.5a.674.674 0 00.625-.714v-1.428a.674.674 0 00-.625-.714h-7.5a.674.674 0 00-.625.714v1.429a.674.674 0 00.625.714zm-2.5 0H5V.714A.674.674 0 004.375 0h-1.25A.674.674 0 002.5.714v13.572H.625a.731.731 0 00-.441 1.219l3.125 4.286a.571.571 0 00.884 0l3.125-4.286a.732.732 0 00-.443-1.219z" fill="#b7b7b7"/></svg>