<svg xmlns="http://www.w3.org/2000/svg" width="38.61" height="45.991"><path data-name="パス 1442" d="M34.304 34.116l1.043-6.171V3.716A3.718 3.718 0 0031.643 0H6.967a3.718 3.718 0 00-3.714 3.716v24.229l1.043 6.171zM4.713 3.716A2.259 2.259 0 016.967 1.46h24.676a2.259 2.259 0 012.254 2.256v24.106l-.834 4.834H5.535l-.834-4.834z" fill="#038e8d"/><path data-name="パス 1443" d="M30.273 4.206H8.342v14.55h21.931zM9.802 5.666h8.774v11.631H9.802zm19.013 11.631h-8.78V5.666h8.778z" fill="#038e8d"/><path data-name="パス 1444" d="M10.563 27.134a3.055 3.055 0 10-3.055-3.055 3.055 3.055 0 003.055 3.055zm0-4.651a1.6 1.6 0 11-1.6 1.6 1.6 1.6 0 011.6-1.599z" fill="#038e8d"/><path data-name="パス 1445" d="M28.052 21.024a3.055 3.055 0 103.055 3.055 3.055 3.055 0 00-3.055-3.055zm0 4.651a1.6 1.6 0 111.6-1.6 1.6 1.6 0 01-1.6 1.6z" fill="#038e8d"/><path data-name="パス 1446" d="M29.914 36.022h-1.929l1.251 1.433H9.385l1.251-1.433H8.7L0 45.992h1.937l2.9-3.324h28.935l2.9 3.324h1.938zm-23.8 5.184L8.1 38.912h22.4l1.994 2.294z" fill="#038e8d"/></svg>