<svg xmlns="http://www.w3.org/2000/svg" width="74.202" height="70.554"><defs><clipPath id="a"><path data-name="長方形 1973" fill="none" stroke="#038e8d" stroke-width="2" d="M0 0h74.202v70.554H0z"/></clipPath></defs><path data-name="線 171" fill="none" stroke="#038e8d" stroke-linecap="round" stroke-linejoin="round" stroke-width="2" d="M20.086 15.29v20.336"/><path data-name="線 172" fill="none" stroke="#038e8d" stroke-linecap="round" stroke-linejoin="round" stroke-width="2" d="M54.077 35.626V15.29"/><g data-name="グループ 271"><g data-name="グループ 270" clip-path="url(#a)"><path data-name="パス 269" d="M59.08 20.442L37.081 1.574l-22 18.869" fill="none" stroke="#038e8d" stroke-linecap="round" stroke-linejoin="round" stroke-width="2"/></g></g><path data-name="長方形 1974" fill="none" stroke="#038e8d" stroke-linecap="round" stroke-linejoin="round" stroke-width="2" d="M29.093 17.92h16.015v16.015H29.093z"/><g data-name="グループ 273"><g data-name="グループ 272" clip-path="url(#a)" fill="none" stroke="#038e8d" stroke-linecap="round" stroke-linejoin="round" stroke-width="2"><path data-name="パス 270" d="M19.906 51.667l-9.61-9.978a4.134 4.134 0 01-1.112-2.323L7.971 27.709a3.3 3.3 0 00-5.57-2.478c-1.027 1.067-.879 2.7-.8 4.131l1.595 13.217a4.828 4.828 0 001.591 3.3l9.219 9.572a5.107 5.107 0 011.443 2.82v4.258"/><path data-name="パス 271" d="M11.465 42.928a3.594 3.594 0 01-.767-3.71 3.46 3.46 0 011.964-2.041 3.278 3.278 0 013.574.794l11.062 11.502a7.034 7.034 0 012.056 5.039v8.021"/><path data-name="パス 272" d="M32.446 68.951v-6.417H12.36v6.417"/><path data-name="パス 273" d="M54.256 51.667l9.61-9.978a4.134 4.134 0 001.112-2.323l1.213-11.658a3.3 3.3 0 015.57-2.478c1.029 1.067.879 2.7.8 4.131l-1.595 13.218a4.828 4.828 0 01-1.591 3.3l-9.219 9.572a5.107 5.107 0 00-1.443 2.82v4.258"/><path data-name="パス 274" d="M62.696 42.928a3.594 3.594 0 00.763-3.711 3.46 3.46 0 00-1.964-2.041 3.278 3.278 0 00-3.574.794l-11.059 11.5a7.034 7.034 0 00-2.056 5.042v8.021"/><path data-name="パス 275" d="M41.716 68.951v-6.417h20.086v6.417"/></g></g></svg>