<svg xmlns="http://www.w3.org/2000/svg" width="65.914" height="64.149"><defs><clipPath id="a"><path data-name="長方形 1976" fill="none" stroke="#038e8d" stroke-width="2" d="M0 0h65.914v64.149H0z"/></clipPath></defs><g data-name="グループ 275" clip-path="url(#a)" fill="none" stroke="#038e8d" stroke-linecap="round" stroke-linejoin="round" stroke-width="2"><path data-name="パス 276" d="M64.517 29.21l-9.609-8.419V5.916h-8.235v7.659L32.945 1.549 1.373 29.21"/><path data-name="パス 277" d="M4.118 62.689v-3.65c0-6.541 3.064-8.24 7.43-9.215a2.867 2.867 0 002.179-2.835v-.916"/><path data-name="パス 278" d="M61.771 59.933v-3.8c0-6.541-3.064-8.24-7.43-9.215a2.867 2.867 0 01-2.179-2.84v-.916"/><path data-name="パス 279" d="M23.337 50.405a19.361 19.361 0 00-2.093-.577 2.866 2.866 0 01-2.178-2.839v-.847"/><path data-name="パス 280" d="M23.336 61.799c0-3.474.318-5.328 4.685-6.3a2.866 2.866 0 002.178-2.841v-.933"/><path data-name="パス 281" d="M42.553 61.799c0-3.474-.318-5.328-4.685-6.3a2.866 2.866 0 01-2.178-2.841v-.933"/><path data-name="パス 282" d="M13.727 46.074A7.308 7.308 0 019.609 39.4a7.081 7.081 0 016.863-7.279 7.081 7.081 0 016.863 7.279 7.293 7.293 0 01-4.27 6.742"/><path data-name="パス 283" d="M46.671 43.162a7.308 7.308 0 01-4.118-6.674 7.081 7.081 0 016.863-7.279 7.081 7.081 0 016.863 7.279 7.308 7.308 0 01-4.118 6.673"/><path data-name="パス 284" d="M43.031 47.291c.468-.138.957-.262 1.462-.374a2.868 2.868 0 002.178-2.839v-.916"/><path data-name="パス 285" d="M30.199 51.724a5.891 5.891 0 01-2.745-5.045 5.665 5.665 0 015.491-5.823 5.665 5.665 0 015.491 5.823 5.891 5.891 0 01-2.745 5.044"/></g></svg>