<svg xmlns="http://www.w3.org/2000/svg" width="59.456" height="56.507"><g transform="translate(-37 -42.6)" fill="#038e8d"><path data-name="パス 1576" d="M94.928 75.499H37.842a.848.848 0 00-.842.842v21.924a.848.848 0 00.842.842h57.086a.848.848 0 00.842-.842V76.341a.816.816 0 00-.842-.842zm-.842 5.5H72.952v-3.816h21.134zm-55.375-3.79h15.4v20.213h-15.4zm17.107 0h15.4v20.213h-15.4zm17.108 20.19V82.71H94.06v14.689z"/><path data-name="パス 1577" d="M95.639 58.681h-.895l-3.711-15.423a.87.87 0 00-.842-.658H37.842a.848.848 0 00-.842.842v18.95a.848.848 0 00.842.842h57.77a.848.848 0 00.842-.842V59.5a.8.8 0 00-.815-.819zm-.869 1.711v1.184H76.61v-1.184zm-5.263-16.055l3.474 14.37H76.663v-14.37zm-50.8 0H55.95v17.239H38.711zm18.95 0H74.9v17.239H57.66z"/><path data-name="長方形 3080" d="M77.716 84.21h11.686v1.711H77.716z"/><path data-name="パス 1578" d="M75.163 80.104a1 1 0 10-1-1 1 1 0 001 1z"/><path data-name="パス 1579" d="M78.979 80.104a1 1 0 10-1-1 1.035 1.035 0 001 1z"/><circle data-name="楕円形 67" cx="1" cy="1" r="1" transform="rotate(-.438 10263.051 -11723.788)"/><path data-name="長方形 3081" d="M42.132 78.71h8.58v1.711h-8.58z"/><path data-name="長方形 3082" d="M59.24 78.71h8.58v1.711h-8.58z"/><path data-name="長方形 3083" d="M50.212 58.365h3.948v1.711h-3.948z"/><path data-name="長方形 3084" d="M59.345 58.365h3.948v1.711h-3.948z"/></g></svg>