<svg xmlns="http://www.w3.org/2000/svg" width="64.434" height="49.261"><defs><clipPath id="a"><path data-name="長方形 3068" fill="#ce4e30" d="M0 0h64.434v49.261H0z"/></clipPath></defs><g data-name="グループ 1374" clip-path="url(#a)"><path data-name="パス 1570" d="M64.432 8.088v-.062a.769.769 0 00-.008-.08c0-.022-.011-.043-.016-.065a.668.668 0 00-.021-.069c-.009-.022-.019-.042-.03-.063s-.02-.041-.033-.06a.676.676 0 00-.04-.055c-.014-.019-.029-.037-.045-.055s-.032-.03-.048-.044-.036-.032-.056-.046-.039-.025-.059-.036-.04-.023-.061-.033a.764.764 0 00-.073-.026c-.016-.005-.031-.013-.047-.017h-.016c-.023-.005-.046-.007-.07-.011a.739.739 0 00-.077-.008H12.649L10.9.54a.719.719 0 00-.7-.54H.719a.719.719 0 100 1.437h8.923l1.795 6.974a.709.709 0 00.227.357L19.641 40.3c0 .007.006.012.008.019a.71.71 0 00.087.2v.008a.7.7 0 00.143.153l.028.024a.728.728 0 00.178.1l.037.011a.722.722 0 00.206.035h6.091a4.508 4.508 0 104.5 0h14.652a4.508 4.508 0 104.5 0h5.54a.724.724 0 00.206-.035l.037-.011a.728.728 0 00.178-.1c.01-.007.019-.016.028-.024a.72.72 0 00.143-.153v-.008a.71.71 0 00.087-.2c0-.007.007-.012.008-.019l8.114-32.05v-.015c.005-.023.007-.048.011-.072a.7.7 0 00.007-.075m-3.98 9.949H50.308l1.17-9.245h11.314zm-2.7 10.683h-8.794l1.17-9.245h9.963zM55.047 39.4H47.6l1.17-9.245h8.612zm-16.356 0v-9.242h8.635l-1.17 9.242zm-8.9 0l-1.17-9.245h8.635V39.4zm-8.891 0l-2.339-9.245h8.612l1.17 9.245zm3.57-30.611l1.17 9.245H15.491l-2.339-9.241zm14.221 10.686h9.986l-1.17 9.245h-8.816zm-1.437 9.245h-8.817l-1.17-9.245h9.986zm1.437-10.683V8.793h11.337l-1.17 9.245zm-1.437 0H27.086l-1.17-9.245h11.337zm-11.436 1.438l1.17 9.245h-8.794l-2.339-9.245zm2.856 28.348a3.077 3.077 0 113.07-3.077 3.077 3.077 0 01-3.07 3.077m19.146 0a3.077 3.077 0 113.071-3.077 3.077 3.077 0 01-3.071 3.077" fill="#ce4e30"/></g></svg>