<svg xmlns="http://www.w3.org/2000/svg" width="70" height="76"><defs><clipPath id="a"><path data-name="長方形 3065" transform="translate(389 1522)" fill="#fff" stroke="#707070" d="M0 0h70v76H0z"/></clipPath><clipPath id="b"><path data-name="長方形 3064" fill="#038e8d" d="M0 0h55.915v77.979H0z"/></clipPath></defs><g transform="translate(-389 -1522)" clip-path="url(#a)"><g data-name="グループ 1369"><g data-name="グループ 1368" clip-path="url(#b)" fill="#038e8d" transform="translate(398.035 1531.146)"><path data-name="パス 1552" d="M47.446 34.224a.818.818 0 00.29-.054l6.693-2.558a.813.813 0 10-.58-1.519l-6.693 2.558a.813.813 0 00.29 1.573"/><path data-name="パス 1553" d="M54.415 40.005l-6.693-2.408a.813.813 0 00-.55 1.531l6.693 2.408a.813.813 0 00.55-1.531"/><path data-name="パス 1554" d="M55.9 73.4c.026-6.954.057-15.61-4.472-20.517-2.885-3.071-6.3-4.65-9.6-6.178q-.584-.27-1.177-.547a22.6 22.6 0 002.9-11.57.813.813 0 00-1.626.05 20.952 20.952 0 01-2.74 10.809c-.7-.347-1.395-.71-2.08-1.107a.813.813 0 00-1.189.481L28.073 72.2 20.2 44.591a.813.813 0 00-1.189-.481c-1.51.872-3.1 1.625-4.631 2.354l-.106.05a34.266 34.266 0 003.491-7.885 10.965 10.965 0 005.3 1.686 2.893 2.893 0 10-.093-1.64A9.411 9.411 0 0114.4 31a3.149 3.149 0 002.01-2.93v-4.342a3.149 3.149 0 00-2.855-3.13 15.516 15.516 0 01-.221-2.173 72.812 72.812 0 00-.04-.711A14.76 14.76 0 0125.535 1.856C31.575.783 38.8 3.433 41.343 11.773c.006.018.011.036.019.053a22.208 22.208 0 011.5 7.133.813.813 0 101.625-.065 23.8 23.8 0 00-1.6-7.623C40.055 2 31.992-.944 25.25.255a16.354 16.354 0 00-13.578 17.557c.015.241.028.474.04.7a17.155 17.155 0 00.241 2.365 3.11 3.11 0 00-1.691 1.917 1.681 1.681 0 00-1.151 1.593v3.032a1.68 1.68 0 001.151 1.593 3.119 3.119 0 002.518 2.17 10.994 10.994 0 003.576 6.391 34.733 34.733 0 01-4.715 10.092.788.788 0 00-.086.177 24.938 24.938 0 00-7.072 5.046C-.041 57.788-.009 66.444.017 73.4c0 1.328.009 2.581-.017 3.749a.814.814 0 101.627.036c.026-1.189.021-2.453.017-3.792-.024-6.67-.055-14.97 4.031-19.4 2.713-2.887 5.961-4.429 9.4-6.061 1.264-.6 2.562-1.216 3.84-1.908l8.375 29.36a.813.813 0 00.782.59.813.813 0 00.782-.589l8.336-29.133c1.323.712 2.654 1.328 3.949 1.927 3.307 1.53 6.432 2.975 9.1 5.81 4.091 4.433 4.06 12.733 4.036 19.4 0 1.338-.009 2.6.017 3.792a.814.814 0 00.813.8h.019a.814.814 0 00.795-.832c-.026-1.168-.021-2.422-.017-3.75M11.755 28.21a.813.813 0 00-.81-.742h-.156a.051.051 0 01-.051-.051v-3.032a.051.051 0 01.051-.051h.156a.813.813 0 00.81-.742 1.518 1.518 0 013.031.136v4.347a1.518 1.518 0 01-3.031.136m14.022 9.861a1.268 1.268 0 11-1.268 1.268 1.27 1.27 0 011.268-1.268"/><path data-name="パス 1555" d="M40.602 21.554a.814.814 0 10.063 1.626c.02 0 1.917-.058 2.425 1.364.425 1.19.948 3.44-.327 5.135a3 3 0 01-2.584 1.218.807.807 0 00-.843.618c-1.487 6.085-5.607 9.99-9.031 11.161a.813.813 0 10.526 1.539c4.456-1.524 8.385-6.184 9.926-11.708a4.593 4.593 0 003.306-1.85c1.732-2.3 1.093-5.161.558-6.659-.9-2.534-3.894-2.448-4.02-2.443"/><path data-name="パス 1556" d="M30.778 48.459a7.453 7.453 0 01-2.12-1.942.813.813 0 00-1.394.146 4.013 4.013 0 01-3.977 2.333.813.813 0 00-.132 1.621 5.7 5.7 0 003.325-.764 5.631 5.631 0 001.635-1.464 9.067 9.067 0 004.469 2.545.8.8 0 00.187.022.813.813 0 00.185-1.6 7.466 7.466 0 01-2.178-.893"/><path data-name="パス 1557" d="M39.978 19.192a.813.813 0 00.678-1.479c-3.708-1.7-6.353-3.852-7.861-6.393a.813.813 0 00-1.311-.121c-2.189 2.5-6.662 4-10.609 5.328-1.674.563-3.255 1.094-4.572 1.669a.813.813 0 10.651 1.491c1.252-.546 2.8-1.067 4.44-1.618 3.758-1.263 7.971-2.68 10.57-5.044a19.5 19.5 0 008.014 6.167"/></g></g></g></svg>