<svg xmlns="http://www.w3.org/2000/svg" width="47.92" height="62.058"><defs><clipPath id="a"><path data-name="長方形 3061" fill="#038e8d" d="M0 0h47.92v62.058H0z"/></clipPath></defs><g data-name="グループ 1350" clip-path="url(#a)" fill="#038e8d"><path data-name="パス 1533" d="M23.947 27.584a6.307 6.307 0 00-5.6-3.154 6.226 6.226 0 00-6.107 6.325c0 7.1 9.256 14.435 11.737 14.435 1.435 0 3.522-1.6 4.639-2.55.169-.144 4.163-3.559 5.236-5.3a.804.804 0 00-1.37-.843 35.169 35.169 0 01-4.909 4.92c-1.745 1.488-3.087 2.166-3.6 2.166-1.4 0-10.128-6.318-10.128-12.827a4.617 4.617 0 014.5-4.717 4.861 4.861 0 014.808 3.7.8.8 0 00.768.565h.054a.8.8 0 00.768-.565 4.9 4.9 0 014.862-3.7 4.551 4.551 0 014.472 4.717 7.114 7.114 0 01-.255 1.814.804.804 0 001.555.413 8.72 8.72 0 00.308-2.227 6.14 6.14 0 00-6.08-6.325 6.367 6.367 0 00-5.656 3.154"/><path data-name="パス 1534" d="M47.178 12.01a32.26 32.26 0 01-20.8-9.851L24.54.248l-.006-.006a.769.769 0 00-.079-.067C24.44.164 24.428.15 24.412.14A.8.8 0 0024.3.077c-.009 0-.016-.01-.024-.013a.805.805 0 00-.63 0l-.019.01a.79.79 0 00-.119.066c-.015.01-.027.023-.041.033a.811.811 0 00-.081.069l-.006.005-1.834 1.913A32.257 32.257 0 01.741 12.01a.8.8 0 00-.741.8v21.625c0 12.446 8.239 22.372 22.619 27.236l1.1.349a.8.8 0 00.488 0l1.11-.354C39.68 56.807 47.92 46.881 47.92 34.435V12.812a.8.8 0 00-.742-.8m-.867 22.424c0 11.713-7.841 21.083-21.5 25.7l-.853.272-.839-.267C9.449 55.518 1.608 46.148 1.608 34.435V13.548a33.865 33.865 0 0021.1-10.276l.447-.467v14.186a.8.8 0 001.609 0V2.806l.448.467a33.865 33.865 0 0021.1 10.276z"/></g></svg>