<svg xmlns="http://www.w3.org/2000/svg" width="50.135" height="45.637"><defs><clipPath id="a"><path data-name="長方形 3075" fill="#efa700" d="M0 0h50.135v45.637H0z"/></clipPath></defs><g data-name="グループ 1394" clip-path="url(#a)"><path data-name="パス 1575" d="M48.242 10.636h-8.581a.678.678 0 100 1.357h8.581a.537.537 0 01.536.537v4.213a.537.537 0 01-.536.536H30.214v-5.338H34.3a6.723 6.723 0 005.039-1.928A6.067 6.067 0 0040.946 5.8c0-2.814-1.821-5.8-5.194-5.8h-.043c-3.807.242-6.3 3.4-9.193 7.047-.548.692-1.11 1.4-1.7 2.121a125.428 125.428 0 01-1.7-2.12C20.222 3.4 17.726.243 13.918 0h-.043C10.5 0 8.68 2.991 8.68 5.8a6.068 6.068 0 001.611 4.208 6.723 6.723 0 005.039 1.928h4.583v5.338H1.893a.537.537 0 01-.536-.536v-4.209a.537.537 0 01.536-.537h7.776a.678.678 0 100-1.357H1.893A1.9 1.9 0 000 12.529v4.213a1.9 1.9 0 001.893 1.893h18.02v25.64H4.04a.372.372 0 01-.371-.371V20.6a.679.679 0 00-1.357 0v23.3a1.73 1.73 0 001.728 1.732h16.5c.018 0 .034.005.052.005h8.943c.018 0 .034 0 .052-.005h16.5a1.73 1.73 0 001.729-1.732V20.6a.679.679 0 00-1.357 0v23.3a.372.372 0 01-.371.371H30.214V18.636h18.028a1.9 1.9 0 001.893-1.893v-4.214a1.9 1.9 0 00-1.893-1.893m-22.76-.148c.743-.886 1.431-1.756 2.1-2.6 2.793-3.529 5-6.318 8.193-6.533 2.479.013 3.816 2.3 3.816 4.448a4.718 4.718 0 01-1.241 3.276 5.411 5.411 0 01-4.054 1.5h-8.857a.636.636 0 00.042-.1m-14.205-1.4A4.718 4.718 0 0110.037 5.8c0-2.15 1.337-4.434 3.816-4.448 3.193.215 5.4 3 8.194 6.534.691.873 1.4 1.775 2.177 2.693h-8.893a5.41 5.41 0 01-4.054-1.5m9.995 2.862h7.586v5.338h-7.587zm7.586 32.334h-7.587V18.636h7.586z" fill="#efa700"/></g></svg>