<svg id="goods8" xmlns="http://www.w3.org/2000/svg" width="23.833" height="36.17" viewBox="0 0 23.833 36.17">
  <path id="パス_102" data-name="パス 102" d="M213.552,403.334v-1.94h-6.984v1.928h0v.011Z" transform="translate(-198.144 -373.038)" fill="#374149"/>
  <path id="パス_103" data-name="パス 103" d="M140.441,386.351V376.8h-3.217v9.54h0v.011Z" transform="translate(-133.698 -350.181)" fill="#374149"/>
  <path id="パス_104" data-name="パス 104" d="M329.233,376.8v9.551h3.217v-9.54h0V376.8Z" transform="translate(-312.143 -350.181)" fill="#374149"/>
  <path id="パス_105" data-name="パス 105" d="M89.161,25.744a2.854,2.854,0,0,0,.841.247,2.477,2.477,0,0,0,.459.039h18v-.039a2.85,2.85,0,0,0,.841-.247,3.131,3.131,0,0,0,1.844-2.859v-3.4l-.3-.437L110,17.818a2.2,2.2,0,0,0-1.312-.992l.364-13.845.005-.084A2.879,2.879,0,0,0,108.23.88,2.859,2.859,0,0,0,106.172,0H92.316a2.864,2.864,0,0,0-2.079.88A2.882,2.882,0,0,0,89.413,2.9v.078l.37,13.845a2.218,2.218,0,0,0-1.311.992l-.846,1.228-.258.364-.05.073v3.4A3.131,3.131,0,0,0,89.161,25.744ZM109,19.39l.249.373h-12.8l-7.247-.006.724-1.048a.594.594,0,0,1,.566-.286h17.471a.606.606,0,0,1,.566.286Zm-.854,4.925h-5.426v.006H95.741v-.006H90.316a1.435,1.435,0,0,1-1.289-1.429V20.492H109.44v2.393A1.44,1.44,0,0,1,108.151,24.315Zm-1.205-6.625H91.515L91.129,2.937A1.187,1.187,0,0,1,92.316,1.71H106.15a1.191,1.191,0,0,1,1.188,1.227Z" transform="translate(-87.317 0)" fill="#374149"/>
  <path id="パス_106" data-name="パス 106" d="M134.986,299.23h-3.733a.275.275,0,0,0-.244.3v1.468c0,.2.163.344.316.282l3.738-1.468C135.326,299.7,135.264,299.23,134.986,299.23Z" transform="translate(-127.922 -278.091)" fill="#374149"/>
</svg>
