<svg id="goods13" xmlns="http://www.w3.org/2000/svg" width="30.032" height="27.469" viewBox="0 0 30.032 27.469">
  <path id="パス_107" data-name="パス 107" d="M27.344,234.033H2.688v-8.709a1.3,1.3,0,0,0-1.3-1.3H1.3a1.3,1.3,0,0,0-1.3,1.3v14.288H2.688V236.72H27.344v2.9h0v.009h2.688v-5.6Z" transform="translate(0 -212.163)" fill="#374149"/>
  <path id="パス_108" data-name="パス 108" d="M210.047,260.724v3.9h0v.009h16.026v-2.459a2.18,2.18,0,0,0-2.18-2.18l-11.666-1.453A2.18,2.18,0,0,0,210.047,260.724Z" transform="translate(-197.727 -244.66)" fill="#374149"/>
  <circle id="楕円形_5" data-name="楕円形 5" cx="3.246" cy="3.246" r="3.246" transform="translate(4.596 13.484)" fill="#374149"/>
  <path id="パス_109" data-name="パス 109" d="M85.732,23.221v0h0v.009l.822-.13.469-.069-1.058,2.1.122.771,2.77-.438h.013l-.152-.961-.867.137-.5.073L88.42,22.6l-.121-.762-2.7.427h-.015Z" transform="translate(-80.562 -21.842)" fill="#374149"/>
  <path id="パス_110" data-name="パス 110" d="M170.749,82.426l-.861-.19-.487-.113,1.765-1.583.167-.754-2.676-.591h-.006l-.009,0-.21.951.815.18.462.107L167.951,82l-.169.764,2.757.609Z" transform="translate(-157.941 -75.826)" fill="#374149"/>
  <path id="パス_111" data-name="パス 111" d="M105.5,152.055v0h0l0,.009.765-.182.437-.1-.845,2.06.17.718,2.592-.616-.21-.881v0h0l0-.009-.807.192-.462.1.848-2.07-.169-.709-2.53.6Z" transform="translate(-99.113 -143.021)" fill="#374149"/>
  <path id="パス_112" data-name="パス 112" d="M20.942,104l-2.566-5.33-.01-.022h0l0-.009-.845.407,2.581,5.36Z" transform="translate(-16.489 -94.137)" fill="#374149"/>
  <path id="パス_113" data-name="パス 113" d="M228.274,116.115l.788.51,3.621-5.586-.778-.5h0l-.008-.005Z" transform="translate(-214.884 -105.327)" fill="#374149"/>
</svg>
