<svg xmlns="http://www.w3.org/2000/svg" width="49.479" height="37.662" viewBox="0 0 49.479 37.662">
  <g id="goods5" transform="translate(42.023 -3.369) rotate(59)">
    <path id="パス_88" data-name="パス 88" d="M.092,2.045A.4.4,0,0,0,.4,2.191H13.973a.4.4,0,0,0,.309-.146.4.4,0,0,0,.085-.333L14.031,0H9.722L9.229,1.207H5.145L4.652,0H.342L.007,1.712A.405.405,0,0,0,.092,2.045Z" transform="translate(2.018 44.883)" fill="#374149"/>
    <path id="パス_89" data-name="パス 89" d="M17.843.537A.662.662,0,0,0,17.2,0H16.5l-.135,0V0h-.016l.324,1.654a.7.7,0,0,1-.686.834H2.418a.705.705,0,0,1-.539-.254.694.694,0,0,1-.146-.58L2,.3,2.057.018h0l0-.015H1.214A.663.663,0,0,0,.566.537L.012,3.358a.662.662,0,0,0,.65.788H17.75a.662.662,0,0,0,.648-.788Z" transform="translate(0 44.88)" fill="#374149"/>
    <path id="パス_90" data-name="パス 90" d="M1.442,41.075h.47l1.156,2.837.116.27.362.886.231.571h3l.231-.571.362-.886.108-.27,1.164-2.837h.47l.077-.756,1.357-12.481L7.578,21.393H7.547L6.422.185A.194.194,0,0,0,6.229,0h-1.9a.2.2,0,0,0-.2.185L3.418,13.5l-.428,7.89H2.976L0,27.838,1.357,40.319ZM5.551,21.809H5V18.456h.555v3.353ZM1.527,28.085l2.405-5.2h2.69l2.4,5.2-1.249,11.5h-5Z" transform="translate(3.93 0)" fill="#374149"/>
    <path id="パス_91" data-name="パス 91" d="M1.271,6.272,4.141,2.4A.578.578,0,0,0,4.2,1.815L3.519.336A.578.578,0,0,0,2.995,0H2.071a.578.578,0,0,0-.524.336L.053,3.574a.581.581,0,0,0-.05.3L.233,5.99A.578.578,0,0,0,1.271,6.272Z" transform="translate(6.704 24.289)" fill="#374149"/>
  </g>
</svg>
