<svg id="goods2" xmlns="http://www.w3.org/2000/svg" width="38.191" height="32.182" viewBox="0 0 38.191 32.182">
  <path id="パス_97" data-name="パス 97" d="M185.081,197.819c.006,0,.012-.006.024-.012a1.408,1.408,0,0,0,.3-.215c.018-.018.036-.042.054-.06a1.165,1.165,0,0,0,.185-.262c.018-.036.036-.072.054-.114a1.258,1.258,0,0,0,.089-.322c.006-.048.012-.1.018-.155a1.9,1.9,0,0,0,.024-.191c0-1.51-.1-3.694-.364-7.531-.239-3.634-1.48-3.634-2.68-3.634h-.143c-1.2,0-2.441,0-2.685,3.634-.257,3.843-.364,6.027-.364,7.531a1.9,1.9,0,0,0,.024.191c.006.054.012.108.018.155a1.582,1.582,0,0,0,.1.322.653.653,0,0,0,.048.114,1.4,1.4,0,0,0,.185.262.548.548,0,0,1,.06.06,1.4,1.4,0,0,0,.3.215.032.032,0,0,0,.024.012,8.238,8.238,0,0,0,4.726,0Zm-4.236-5.941c.042-.839.107-1.784.178-2.861.113-1.73.448-2.3.638-2.483.173-.173.436-.2.985-.2h.328c.555,0,.811.03.991.2s.507.728.626,2.387l-2.286,1.8-.883.71-.353.277Z" transform="translate(-166.2 -174.504)" fill="#374149"/>
  <path id="パス_98" data-name="パス 98" d="M38.185,59.465a4.264,4.264,0,0,0-.042-.478c-.012-.066-.024-.125-.036-.191-.018-.084-.018-.167-.042-.245L35.5,48.777a3.464,3.464,0,0,0-2.548-2.5c-1.736-.412-4.917-1.17-6.134-1.456l-.561-.137a2.96,2.96,0,0,0-.131-1.038,2.751,2.751,0,0,0-.788-1.2L25.3,42.4a4.785,4.785,0,0,0-.62-.465l-.084-.048-.054-.03-.083-.048-.108-.06c-1.707-.991-4.177-1.474-7.549-1.474-.113,0-.227.006-.34.006s-.227-.006-.346-.006c-3.378,0-5.86.489-7.573,1.486l-.072.042a6.431,6.431,0,0,0-.847.6c-.072.066-.143.137-.2.2l-1.372.448c-1.814.591-4.4,1.522-4.512,1.564L.06,45.149l-.054.018v.006H0L4.368,56.015c-.006.149-.024.3-.036.466-.125,1.48-.221,3.073-.28,4.732-.006.173-.012.346-.018.525l-.012.114v.03c0,.173-.006.352-.012.531-.084,2.065-.131,4.088-.119,4.72l.006.006v.018a2.863,2.863,0,0,0,.442,1.385c.668,1.223,3.133,3.92,11.827,3.92h.579c8.694,0,11.159-2.691,11.827-3.92a2.868,2.868,0,0,0,.448-1.42v-.036l6.994-3.8a4.185,4.185,0,0,0,1.862-2.065c.03-.072.048-.149.072-.227s.048-.131.066-.2a3.826,3.826,0,0,0,.113-.454c.012-.072.024-.137.03-.209.018-.155.03-.3.036-.46C38.192,59.6,38.192,59.53,38.185,59.465Zm-32.7,3.013c.006-.2.012-.4.018-.6l.006-.072c0-.179.006-.352.018-.525.065-1.737.161-3.294.281-4.69.012-.215.036-.424.048-.633.006-.072.012-.149.024-.215.083-1.038.2-1.981.31-2.835.836-6.29,2.059-7.793,2.059-7.793a1.428,1.428,0,0,1-.042-1.044,1.374,1.374,0,0,1,.406-.579c.006-.006.113-.089.251-.191a3.2,3.2,0,0,1,.334-.221l.084-.042c1.176-.692,3.157-1.283,6.833-1.283H16.8c3.676,0,5.657.591,6.839,1.283l.077.042c.06.036.113.072.167.1a2.7,2.7,0,0,1,.418.31l.012.012a1.362,1.362,0,0,1,.4.567,1.49,1.49,0,0,1,.06.262,1.338,1.338,0,0,1-.108.782s1.223,1.5,2.065,7.8c.03.251.059.5.1.77.084.7.155,1.456.233,2.274.03.346.06.7.089,1.086.1,1.271.179,2.68.239,4.237.006.072.006.155.012.233v.024c.006.113.006.227.012.328.006.131.012.269.018.406.006.3.024.591.03.877.024.6.042,1.158.054,1.665v.472c-.126.066-.257.125-.388.185-.489.227-1,.436-1.528.627a26.153,26.153,0,0,1-9.106,1.581,25.538,25.538,0,0,1-11.1-2.429C5.407,64.471,5.436,63.51,5.484,62.478Zm-.827-9.6a.21.21,0,0,1-.013.03c-.878-2.639-2.975-7.131-2.985-7.2v0c1.838-.06,4.022-.137,4.833-.167-.818,1.474-1.522,5.454-1.754,6.881C4.7,52.64,4.672,52.8,4.657,52.875ZM28.84,60.76c-.054-1.424-.131-2.682-.226-3.832-.03-.382-.059-.74-.089-1.092-.066-.806-.143-1.528-.215-2.19a.093.093,0,0,0,0-.029s0,0,0-.007l.543-.03h.024a.525.525,0,0,1,.477.31l1.9,4.344a1.232,1.232,0,0,1-.561,1.581l-1.3.674-.39.2ZM29,65.4c-.018-.829-.054-1.871-.1-3l2.459-1.277A2.7,2.7,0,0,0,32.6,57.644L30.7,53.3a2.005,2.005,0,0,0-1.832-1.2l-.1.006-.662.036c-.185-1.349-.406-2.471-.621-3.414-.024-.105-.047-.215-.072-.322,0-.026-.01-.049-.013-.077,1.432.34,3.219.769,4.375,1.043a2.008,2.008,0,0,1,1.468,1.432l3.413,9.381a2.483,2.483,0,0,1-.149.465,2.688,2.688,0,0,1-1.2,1.337l-4.362,2.369-1.344.726Z" transform="translate(0 -40.279)" fill="#374149"/>
  <path id="パス_99" data-name="パス 99" d="M147.8,77.593a.822.822,0,0,0,.089-.37c0-.018-.012-.036-.012-.054s.012-.06.012-.089c0-.4-.3-.77-.812-1.092a11.327,11.327,0,0,0-5.532-1.146c-3.055,0-5.6.764-6.212,1.772a.95.95,0,0,0-.131.466v.006c0,.024.012.042.012.066s-.012.048-.012.071v.006c.018,1.229,2.852,2.226,6.343,2.226C144.686,79.455,147.3,78.649,147.8,77.593Zm-6.254-2.172c1.42,0,2.566.37,2.661.925-.1.561-1.241,1.008-2.661,1.008a4.2,4.2,0,0,1-2.363-.579v-.012h-.012a.778.778,0,0,1-.292-.4C138.952,75.8,140.109,75.421,141.541,75.421Z" transform="translate(-125.113 -72.264)" fill="#374149"/>
</svg>
