<svg id="goods7" xmlns="http://www.w3.org/2000/svg" width="23.949" height="34.701" viewBox="0 0 23.949 34.701">
  <path id="パス_83" data-name="パス 83" d="M101.264,0H81.325A2,2,0,0,0,79.32,2.005V30.413a2,2,0,0,0,2.005,2.005h19.939a2,2,0,0,0,2.005-2.005V2.005A2,2,0,0,0,101.264,0Zm0,28.017H81.325V22.282h5.3l.929,1.37h7.921l.929-1.37h4.856v5.735ZM81.325,18.91V2.005h12.74v16.9Zm19.939,1.337v.7H81.325v-.7Zm0-1.377v.041h-6.2V2.005h6.2Z" transform="translate(-79.32)" fill="#374149"/>
  <path id="パス_84" data-name="パス 84" d="M111.159,488.168h-.011v1.281a.334.334,0,0,0,.334.334h1.337a.334.334,0,0,0,.334-.334v-1.281h-1.994Z" transform="translate(-108.991 -455.082)" fill="#374149"/>
  <path id="パス_85" data-name="パス 85" d="M371.277,488.168h-.011v1.281a.334.334,0,0,0,.334.334h1.337a.334.334,0,0,0,.334-.334v-1.281h-1.995Z" transform="translate(-351.479 -455.082)" fill="#374149"/>
  <path id="パス_86" data-name="パス 86" d="M136.719,52.121h-4.167a.321.321,0,0,0-.321.321V56.61a.208.208,0,0,0,.354.15l4.284-4.285A.208.208,0,0,0,136.719,52.121Z" transform="translate(-128.645 -48.588)" fill="#374149"/>
</svg>
