<svg id="goods4" xmlns="http://www.w3.org/2000/svg" width="26.708" height="34.587" viewBox="0 0 26.708 34.587">
  <path id="パス_32" data-name="パス 32" d="M58.314,115.333H84.931a.091.091,0,0,0,.092-.089V91.527H58.314Zm3.133-12.954a10.084,10.084,0,0,1,13.592-8.465l.034.014q.307.117.6.253c.055.025.108.054.163.081.156.075.311.151.463.234.057.031.112.066.169.1.149.085.3.17.441.262.036.023.07.049.106.072.164.108.326.218.483.335l0,0A10.131,10.131,0,0,1,80.58,99.01h1.392a1.642,1.642,0,0,1,1.642,1.642v5.861a1.64,1.64,0,0,1-1.642,1.642H80.347a10.1,10.1,0,0,1-8.682,5.274h-.184A10.089,10.089,0,0,1,61.4,103.348,9.376,9.376,0,0,1,61.447,102.379Z" transform="translate(-58.314 -85.344)" fill="#374149"/>
  <path id="パス_33" data-name="パス 33" d="M82.52,0H81.5V1.615a.52.52,0,0,1-.519.519H76.275a.52.52,0,0,1-.522-.519V0H60.813a2.5,2.5,0,0,0-2.5,2.5V5.2H85.022V2.5A2.5,2.5,0,0,0,82.52,0ZM63.331,3.885A1.368,1.368,0,1,1,64.7,2.518,1.368,1.368,0,0,1,63.331,3.885Z" transform="translate(-58.314)" fill="#374149"/>
  <path id="パス_34" data-name="パス 34" d="M58.322,466.633v.091A2.974,2.974,0,0,0,61.3,469.7H81.964a3.072,3.072,0,0,0,3.06-2.965c0-.03.005-.059.005-.088h0s0-.007,0-.011Z" transform="translate(-58.321 -435.111)" fill="#374149"/>
  <path id="パス_35" data-name="パス 35" d="M139.6,161.124a8.234,8.234,0,0,0,8.235-8.232c0-.049,0-.1,0-.148a8.233,8.233,0,0,0-16.464.066.654.654,0,0,0,0,.079A8.244,8.244,0,0,0,139.6,161.124Zm-6.853-9.2v0a1.552,1.552,0,0,0,.108-.237.1.1,0,0,1,.2,0,1.708,1.708,0,0,0,3.215,0,.1.1,0,0,1,.2,0,1.706,1.706,0,0,0,3.211,0,.107.107,0,0,1,.2,0,1.7,1.7,0,0,0,3.208,0,.107.107,0,0,1,.2,0,1.7,1.7,0,0,0,2.986.42,1.778,1.778,0,0,0,.162-.252,6.922,6.922,0,1,1-13.766,1.034A6.633,6.633,0,0,1,132.751,151.927Z" transform="translate(-126.434 -134.885)" fill="#374149"/>
</svg>
