<svg xmlns="http://www.w3.org/2000/svg" width="37.093" height="30.828" viewBox="0 0 37.093 30.828">
  <g id="goods12" transform="translate(0 0)">
    <path id="パス_67" data-name="パス 67" d="M34.288,54.409V44.179a.94.94,0,0,0-.945-.939H3.744a.939.939,0,0,0-.939.939v10.23A7.827,7.827,0,0,0,0,60.425V73.587a.479.479,0,0,0,.475.481H4.161a.479.479,0,0,0,.475-.481V69.1a.477.477,0,0,1,.475-.475H31.981a.477.477,0,0,1,.475.475v4.492a.479.479,0,0,0,.475.481h3.686a.479.479,0,0,0,.475-.481V60.425A7.826,7.826,0,0,0,34.288,54.409ZM2.97,57.818a5.538,5.538,0,0,1,4.889-2.935H29.234a5.543,5.543,0,0,1,4.888,2.934,1.262,1.262,0,0,1-1.108,1.859H4.079A1.262,1.262,0,0,1,2.97,57.818Zm26.554-5.833a.384.384,0,0,1-.319.255,34.566,34.566,0,0,1-8.954,0,.368.368,0,0,1-.313-.255,6.293,6.293,0,0,1,0-4.874.371.371,0,0,1,.313-.249,34.565,34.565,0,0,1,8.954,0,.387.387,0,0,1,.319.249A6.342,6.342,0,0,1,29.524,51.986Zm-12.368,0a.375.375,0,0,1-.313.255,34.568,34.568,0,0,1-8.955,0,.383.383,0,0,1-.319-.255,6.342,6.342,0,0,1,0-4.874.387.387,0,0,1,.319-.249,34.567,34.567,0,0,1,8.955,0,.378.378,0,0,1,.313.249A6.29,6.29,0,0,1,17.155,51.986Z" transform="translate(0 -43.24)" fill="#374149"/>
  </g>
</svg>
