<svg id="goods6" xmlns="http://www.w3.org/2000/svg" width="38.426" height="27.263" viewBox="0 0 38.426 27.263">
  <path id="パス_36" data-name="パス 36" d="M0,74.367v24.8H5.784v.962a1.5,1.5,0,0,0,1.5,1.5h.424a1.5,1.5,0,0,0,1.5-1.5v-.962H29.209v.962a1.5,1.5,0,0,0,1.5,1.5h.424a1.5,1.5,0,0,0,1.5-1.5v-.962h5.784v-24.8Zm29.8,19.34a2.054,2.054,0,0,1-2.053,2.054H5.457A2.055,2.055,0,0,1,3.4,93.707V79.823A2.056,2.056,0,0,1,5.457,77.77h22.29A2.056,2.056,0,0,1,29.8,79.823Zm1.6-15.2h1.849v1.84H31.4Zm0,2.761h1.849v1.841H31.4Zm0,2.761h1.849v1.837H31.4Zm2.423,9.486a2.409,2.409,0,1,1,2.409-2.409A2.407,2.407,0,0,1,33.827,93.518Zm2.424-7.649H34.4V84.031h1.849Zm0-2.758H34.4V81.27h1.849Zm0-2.761H34.4V78.51h1.849Z" transform="translate(0 -74.367)" fill="#374149"/>
  <path id="パス_37" data-name="パス 37" d="M87.919,139.422H84.459l-7,7.759-.021.023-1.1-.988,3.668-4.07,2.454-2.711h-.011l.011-.012H78.544l-9.362,10.387-.036.04-1.1-.991,5.088-5.644,3.419-3.78h-.011l.011-.012H65.628a.575.575,0,0,0-.574.574V153.88a.575.575,0,0,0,.574.574h22.29a.575.575,0,0,0,.574-.574V140A.574.574,0,0,0,87.919,139.422Z" transform="translate(-60.172 -134.54)" fill="#374149"/>
</svg>
