<svg xmlns="http://www.w3.org/2000/svg" width="33.082" height="34.702" viewBox="0 0 33.082 34.702">
  <g id="goods14" transform="translate(-27.412)">
    <path id="パス_1515" data-name="パス 1515" d="M237.252,14.24v.012h2.5V3.88A1.382,1.382,0,0,1,241.135,2.5c.045,0,.091,0,.137.007a1.436,1.436,0,0,1,1.241,1.437v.412h0v.012h2.5l0-.433A3.918,3.918,0,0,0,241.5.018Q241.316,0,241.132,0a3.884,3.884,0,0,0-3.88,3.88V14.24Z" transform="translate(-194.656)" fill="#374149"/>
    <path id="パス_1516" data-name="パス 1516" d="M312.457,70.491V69.246h-2.5v1.245a.583.583,0,0,0,.583.584h1.335A.584.584,0,0,0,312.457,70.491Z" transform="translate(-262.098 -64.235)" fill="#374149"/>
    <path id="パス_1517" data-name="パス 1517" d="M151.445,151.18l.269-2.577a.912.912,0,0,0-.908-.993H149.3a.912.912,0,0,0-.908.993l.269,2.577Z" transform="translate(-112.222 -136.929)" fill="#374149"/>
    <path id="パス_1518" data-name="パス 1518" d="M317.615,148.6l.268,2.577h2.785l.269-2.577a.912.912,0,0,0-.908-.993h-1.505A.911.911,0,0,0,317.615,148.6Z" transform="translate(-269.2 -136.929)" fill="#374149"/>
    <path id="パス_1519" data-name="パス 1519" d="M27.412,228.7v4.689h0v.012H60.494v-4.7Z" transform="translate(0 -212.15)" fill="#374149"/>
    <path id="パス_1520" data-name="パス 1520" d="M41.8,319.114V329.4a1.328,1.328,0,0,0,1.329,1.328H71.47A1.329,1.329,0,0,0,72.8,329.4V319.114Zm2.714,7.951v-3.974a.193.193,0,0,1,.363-.094,14.906,14.906,0,0,0,2.115,2.915,15.126,15.126,0,0,0,1.916,1.747.194.194,0,0,1-.12.347H45.455A.942.942,0,0,1,44.512,327.065Z" transform="translate(-13.345 -296.022)" fill="#374149"/>
  </g>
</svg>
