<svg xmlns="http://www.w3.org/2000/svg" width="36.766" height="30.509" viewBox="0 0 36.766 30.509">
  <g id="goods10" transform="translate(0)">
    <path id="パス_76" data-name="パス 76" d="M36.7,70.123a3.459,3.459,0,0,0-.617-1.135,2.864,2.864,0,0,1-.145-1.5,39.988,39.988,0,0,0-.635-17.917,2.982,2.982,0,0,1,.047-1.392,4.291,4.291,0,0,0,.438-3.027,2.5,2.5,0,0,0-2.45-1.582c-.059,0-.116.005-.174,0h-.024l-.025,0a3.936,3.936,0,0,0-1.978.693l-.12.1a2.771,2.771,0,0,1-1.129.187.468.468,0,0,1-.115-.011,105.32,105.32,0,0,0-11.39-.977A105.11,105.11,0,0,0,7,44.545a.529.529,0,0,1-.12.011A2.618,2.618,0,0,1,5.7,44.348,4.152,4.152,0,0,0,3.859,43.6a2.925,2.925,0,0,0-1.688.512,2.962,2.962,0,0,0-1.31,1.811,2.244,2.244,0,0,0,.355,1.713,3.624,3.624,0,0,1,.314,1.408,2.009,2.009,0,0,1-.072.531A39.278,39.278,0,0,0,.829,67.486a2.863,2.863,0,0,1-.146,1.5A3.337,3.337,0,0,0,.029,70.3,3.319,3.319,0,0,0,.985,73.03a3.155,3.155,0,0,0,1.988,1.022,2.267,2.267,0,0,0,.6-.024,2.179,2.179,0,0,0,1.308-.751l.113-.095a2.882,2.882,0,0,1,1.222-.224.767.767,0,0,1,.118.018,59.816,59.816,0,0,0,12.05,1.1,59.811,59.811,0,0,0,12.049-1.1.891.891,0,0,1,.124-.018,2.708,2.708,0,0,1,1.248.241l.127.129a2.138,2.138,0,0,0,1.081.664,2.326,2.326,0,0,0,.782.059,3.19,3.19,0,0,0,1.994-1.028A3.28,3.28,0,0,0,36.7,70.123ZM16.545,71.391q-1.08-.029-2.164-.092-.382-.022-.764-.049-1.094-.075-2.2-.186-.367-.037-.736-.078-1.138-.126-2.293-.289-.335-.048-.673-.1c-.394-.059-.788-.119-1.185-.185a2.737,2.737,0,0,0-.388-.047c-.073-.006-.152-.006-.225-.006a4.148,4.148,0,0,0-2.716.875l-.173.175a.154.154,0,0,1-.091.064l-.068.006a.513.513,0,0,1-.285-.146.489.489,0,0,1-.139-.391.373.373,0,0,1,.1-.14,4.87,4.87,0,0,0,.7-3.66A40.188,40.188,0,0,1,3.768,49.9a4.254,4.254,0,0,0-.461-3.4l-.054-.06c-.032-.027-.026-.082-.025-.115a.511.511,0,0,1,.225-.34.361.361,0,0,1,.182-.071h.022a.191.191,0,0,1,.141.049l.139.159a3.951,3.951,0,0,0,2.557.8c.077,0,.148-.006.219-.006.126-.011.252-.022.373-.038a71.583,71.583,0,0,1,11.3-.917,71.325,71.325,0,0,1,11.3.917c.121.017.247.027.373.038.071,0,.148.006.219.006a3.919,3.919,0,0,0,2.557-.8l.16-.181a.169.169,0,0,1,.114-.027h.005a.478.478,0,0,1,.388.3.261.261,0,0,1-.038.291A4.267,4.267,0,0,0,33,49.9a40.545,40.545,0,0,1,.53,17.244,4.843,4.843,0,0,0,.735,3.7.182.182,0,0,1,.052.076.471.471,0,0,1-.139.415.478.478,0,0,1-.3.146c-.017,0-.04-.006-.057-.006a.186.186,0,0,1-.074-.058l-.173-.181a4.149,4.149,0,0,0-2.716-.875c-.079,0-.158,0-.231.006-.135.006-.259.024-.388.041a71.52,71.52,0,0,1-11.859,1.01c-.36,0-.721-.006-1.081-.011Q16.922,71.4,16.545,71.391Z" transform="translate(0 -43.567)" fill="#374149"/>
    <path id="パス_77" data-name="パス 77" d="M274.176,219.081a70.661,70.661,0,0,0,9.41-.938l.016,0a1.182,1.182,0,0,0,1-.955c.006-.035.012-.067.019-.095a37.056,37.056,0,0,0,.494-10.466.95.95,0,0,0-.042-.165c0-.016-.008-.033-.013-.049a.925.925,0,0,0-1.138-.609h0a.856.856,0,0,0-.222.1l0,0a.893.893,0,0,0-.338.371,27.45,27.45,0,0,1-2.936,4.769,53.353,53.353,0,0,1-6.712,6.8A.706.706,0,0,0,274.176,219.081Z" transform="translate(-253.833 -194.119)" fill="#374149"/>
    <path id="パス_78" data-name="パス 78" d="M72.344,248.051h.005a.291.291,0,0,0,.291-.286q.005-.289.014-.578a.29.29,0,0,0-.281-.3.3.3,0,0,0-.3.281q-.01.293-.015.587A.292.292,0,0,0,72.344,248.051Z" transform="translate(-66.883 -232.286)" fill="#374149"/>
    <path id="パス_79" data-name="パス 79" d="M76,191.488l.033,0a.292.292,0,0,0,.289-.259q.032-.288.069-.574a.291.291,0,1,0-.577-.074q-.037.29-.07.583A.291.291,0,0,0,76,191.488Z" transform="translate(-70.299 -179.791)" fill="#374149"/>
    <path id="パス_80" data-name="パス 80" d="M80.6,360.147a.291.291,0,1,0-.572.107q.055.292.114.577a.291.291,0,1,0,.569-.119Q80.655,360.433,80.6,360.147Z" transform="translate(-74.278 -337.193)" fill="#374149"/>
    <path id="パス_81" data-name="パス 81" d="M73.787,304.464q-.023-.287-.041-.576a.291.291,0,1,0-.581.037q.019.294.042.585a.291.291,0,0,0,.29.268h.023A.291.291,0,0,0,73.787,304.464Z" transform="translate(-67.911 -284.942)" fill="#374149"/>
    <path id="パス_82" data-name="パス 82" d="M85.725,134.572a.289.289,0,0,0-.354.21q-.072.282-.14.571a.291.291,0,0,0,.217.349.3.3,0,0,0,.066.008.292.292,0,0,0,.283-.225q.067-.283.137-.56A.291.291,0,0,0,85.725,134.572Z" transform="translate(-79.104 -128.028)" fill="#374149"/>
  </g>
</svg>
