<svg xmlns="http://www.w3.org/2000/svg" width="50.837" height="47.022" viewBox="0 0 50.837 47.022">
  <g id="goods15" transform="translate(13.65 -5.194) rotate(21)">
    <path id="パス_38" data-name="パス 38" d="M16.419,3.037c-.043-.042-.086-.083-.132-.121C14.79,1.672,11.063-.336,8.618.4,4.565,1.617,1.768,5.219.858,13.557c0,.007,0,.013,0,.02q-.049.452-.091.924c0,.028-.005.057-.008.085q-.039.45-.071.919l-.008.12q-.031.461-.055.938c0,.042,0,.085-.006.127-.015.32-.029.645-.04.977,0,.037,0,.075,0,.112-.011.339-.02.682-.025,1.033,0,.025,0,.052,0,.077-.006.361-.009.727-.01,1.1,0,.006,0,.012,0,.018,0,.531,0,1.077.014,1.635,0,.263.008.525.014.794h0v.013l5.1.125c.113-3.437.206-7.03,1.6-10.119.7-1.567,1.41-2.712,1.848-2.477a25.132,25.132,0,0,0,3.647,1.267,1.74,1.74,0,0,0,2.069-.911l2.3-4.822a1.916,1.916,0,0,0-.4-2.167Z" transform="translate(1.869 4.399)" fill="#374149"/>
    <path id="パス_39" data-name="パス 39" d="M.193.006.012,0H0L1.039,14.647l2.5.065L3.87.745,3.886.116h0V.1Z" transform="translate(2.962 31.095)" fill="#374149"/>
    <path id="パス_40" data-name="パス 40" d="M.517,1.356a.687.687,0,0,0,.207.038A.644.644,0,0,0,1.366.928.725.725,0,0,0,.9.053a.657.657,0,0,0-.852.43A.723.723,0,0,0,.517,1.356Z" transform="translate(25.299 7.474)" fill="#374149"/>
    <path id="パス_41" data-name="パス 41" d="M.516,1.352a.682.682,0,0,0,.207.035A.644.644,0,0,0,1.366.922.719.719,0,0,0,.9.049a.665.665,0,0,0-.419,0h0A.635.635,0,0,0,.044.477.726.726,0,0,0,.516,1.352Z" transform="translate(34.429 10.089)" fill="#374149"/>
    <path id="パス_42" data-name="パス 42" d="M1.369.927A.722.722,0,0,0,.9.054.654.654,0,0,0,.044.482a.727.727,0,0,0,.473.876.77.77,0,0,0,.207.035A.649.649,0,0,0,1.369.927Z" transform="translate(29.864 8.462)" fill="#374149"/>
    <path id="パス_43" data-name="パス 43" d="M.894.049a.662.662,0,0,0-.418,0h0A.62.62,0,0,0,.292.145h0a.622.622,0,0,0-.246.33.725.725,0,0,0,.47.876.7.7,0,0,0,.207.035A.647.647,0,0,0,1.367.922.722.722,0,0,0,.894.049Z" transform="translate(39.001 11.71)" fill="#374149"/>
    <path id="パス_44" data-name="パス 44" d="M.893.054A.654.654,0,0,0,.044.482a.727.727,0,0,0,.473.876.663.663,0,0,0,.2.035A.647.647,0,0,0,1.366.927.724.724,0,0,0,.893.054Z" transform="translate(43.562 13.327)" fill="#374149"/>
    <path id="パス_45" data-name="パス 45" d="M.722,1.388a.664.664,0,0,0,.111-.023.627.627,0,0,0,.09-.019A.619.619,0,0,0,1.1,1.26a.646.646,0,0,0,.089-.074c.025-.024.057-.037.078-.065A.7.7,0,0,0,1.1.156.676.676,0,0,0,.26.17L.253.177a.626.626,0,0,0-.112.1.7.7,0,0,0,.17.965A.715.715,0,0,0,.722,1.388Z" transform="translate(23.001 10.056)" fill="#374149"/>
    <path id="パス_46" data-name="パス 46" d="M.722,1.388a.675.675,0,0,0,.11-.023.633.633,0,0,0,.088-.019A.617.617,0,0,0,1.1,1.259a.648.648,0,0,0,.083-.069c.025-.025.059-.037.08-.067A.7.7,0,0,0,1.1.156a.671.671,0,0,0-.84.017h0a.626.626,0,0,0-.116.1.7.7,0,0,0,.17.967A.7.7,0,0,0,.722,1.388Z" transform="translate(26.897 13.133)" fill="#374149"/>
    <path id="パス_47" data-name="パス 47" d="M1.1,1.259a.593.593,0,0,0,.085-.071c.025-.025.058-.037.079-.066A.7.7,0,0,0,1.1.156a.671.671,0,0,0-.84.016l0,0a.613.613,0,0,0-.112.1.7.7,0,0,0,.17.965.7.7,0,0,0,.411.144.661.661,0,0,0,.11-.023A.612.612,0,0,0,.92,1.346.6.6,0,0,0,1.1,1.259Z" transform="translate(30.793 16.212)" fill="#374149"/>
    <path id="パス_48" data-name="パス 48" d="M.258.173h0a.6.6,0,0,0-.116.1.7.7,0,0,0,.173.967.7.7,0,0,0,.408.142.66.66,0,0,0,.11-.023.635.635,0,0,0,.09-.019A.619.619,0,0,0,1.1,1.26a.606.606,0,0,0,.088-.074c.025-.024.057-.037.078-.066A.7.7,0,0,0,1.1.156.676.676,0,0,0,.258.173Z" transform="translate(34.686 19.29)" fill="#374149"/>
    <path id="パス_49" data-name="パス 49" d="M.259.169.251.177a.609.609,0,0,0-.112.1.7.7,0,0,0,.173.968.7.7,0,0,0,.408.145.655.655,0,0,0,.548-.268A.7.7,0,0,0,1.1.154.68.68,0,0,0,.259.169Z" transform="translate(38.583 22.368)" fill="#374149"/>
    <path id="パス_50" data-name="パス 50" d="M1.25.311A.7.7,0,0,0,.286.139.677.677,0,0,0,.16,1.1a.728.728,0,0,0,.563.3.662.662,0,0,0,.4-.122A.68.68,0,0,0,1.25.311Z" transform="translate(20.703 13.26)" fill="#374149"/>
    <path id="パス_51" data-name="パス 51" d="M.724,1.388a.663.663,0,0,0,.4-.122A.68.68,0,0,0,1.25.306.708.708,0,0,0,1.129.2h0A.683.683,0,0,0,.286.134a.673.673,0,0,0-.124.957A.727.727,0,0,0,.724,1.388Z" transform="translate(23.6 17.398)" fill="#374149"/>
    <path id="パス_52" data-name="パス 52" d="M.286.14A.677.677,0,0,0,.16,1.1a.727.727,0,0,0,.563.3.653.653,0,0,0,.4-.122A.679.679,0,0,0,1.25.312.7.7,0,0,0,.286.14Z" transform="translate(29.397 25.656)" fill="#374149"/>
    <path id="パス_53" data-name="パス 53" d="M.285.139A.676.676,0,0,0,.161,1.1a.728.728,0,0,0,.563.3.663.663,0,0,0,.4-.122.677.677,0,0,0,.124-.96A.7.7,0,0,0,.285.139Z" transform="translate(32.295 29.789)" fill="#374149"/>
    <path id="パス_54" data-name="パス 54" d="M1.25.309A.7.7,0,0,0,1.13.2l0,0A.683.683,0,0,0,.286.133a.677.677,0,0,0-.127.958.728.728,0,0,0,.563.3.671.671,0,0,0,.4-.122A.676.676,0,0,0,1.25.309Z" transform="translate(26.498 21.53)" fill="#374149"/>
    <path id="パス_55" data-name="パス 55" d="M1.067.149h0A.692.692,0,0,0,.427.058.663.663,0,0,0,.076.95a.734.734,0,0,0,.646.442.676.676,0,0,0,.263-.049A.661.661,0,0,0,1.336.454.722.722,0,0,0,1.067.149Z" transform="translate(28.015 43.249)" fill="#374149"/>
    <path id="パス_56" data-name="パス 56" d="M1.068.15h0A.687.687,0,0,0,.427.059.661.661,0,0,0,.075.948a.73.73,0,0,0,.647.442.66.66,0,0,0,.262-.046A.663.663,0,0,0,1.336.456.727.727,0,0,0,1.068.15Z" transform="translate(18.404 16.474)" fill="#374149"/>
    <path id="パス_57" data-name="パス 57" d="M1.069.151l-.006,0A.691.691,0,0,0,.428.058.661.661,0,0,0,.077.949a.734.734,0,0,0,.646.442.7.7,0,0,0,.26-.046A.661.661,0,0,0,1.334.454.713.713,0,0,0,1.069.151Z" transform="translate(24.17 30.559)" fill="#374149"/>
    <path id="パス_58" data-name="パス 58" d="M1.067.149h0A.681.681,0,0,0,.428.06.657.657,0,0,0,.077.948a.734.734,0,0,0,.646.442A.657.657,0,0,0,1.334.453.72.72,0,0,0,1.067.149Z" transform="translate(20.326 21.17)" fill="#374149"/>
    <path id="パス_59" data-name="パス 59" d="M1.065.149h0A.694.694,0,0,0,.425.058.662.662,0,0,0,.077.95a.728.728,0,0,0,.646.439A.656.656,0,0,0,1.334.454.723.723,0,0,0,1.065.149Z" transform="translate(26.093 38.904)" fill="#374149"/>
    <path id="パス_60" data-name="パス 60" d="M.426.063A.656.656,0,0,0,.077.952a.724.724,0,0,0,.646.442.658.658,0,0,0,.26-.046A.665.665,0,0,0,1.334.457.716.716,0,0,0,.426.063Z" transform="translate(22.249 25.861)" fill="#374149"/>
  </g>
</svg>
