<svg id="goods9" xmlns="http://www.w3.org/2000/svg" width="33.262" height="32.638" viewBox="0 0 33.262 32.638">
  <path id="パス_68" data-name="パス 68" d="M153.741,7.021h13.077c.032-1.079.095-1.859.124-2.176,0-.008,0-.02,0-.026h0s0-.008,0-.011H153.608C153.636,5.1,153.7,5.9,153.741,7.021Z" transform="translate(-143.629 -4.807)" fill="#374149"/>
  <path id="パス_69" data-name="パス 69" d="M5.584,342.008c-.066.006-.133.011-.2.011H1.535V352.7H7.211s-.05-.874-.172-2.168A45.848,45.848,0,0,0,5.584,342.008Z" transform="translate(-1.435 -320.102)" fill="#374149"/>
  <path id="パス_70" data-name="パス 70" d="M9.727,13.2A43.722,43.722,0,0,0,9.882,7.67C9.838,6.354,9.755,5.5,9.755,5.5H1.535v17.17H5.38a1.942,1.942,0,0,1,.763.155,39.814,39.814,0,0,0,2.318-4.176,15.456,15.456,0,0,0,1.046-3.789C9.6,14.314,9.672,13.755,9.727,13.2Z" transform="translate(-1.435 -5.457)" fill="#374149"/>
  <path id="パス_71" data-name="パス 71" d="M427.06,342.019h-1.654a.85.85,0,0,1-.166-.011,45.83,45.83,0,0,0-1.455,8.519c-.115,1.223-.165,2.061-.171,2.151,0,0,0,.007,0,.007h0s0,.01,0,.01h5.676V342.019H427.06Z" transform="translate(-396.094 -320.102)" fill="#374149"/>
  <path id="パス_72" data-name="パス 72" d="M386.591,22.672h3.883V5.5h-8.22s-.083.852-.127,2.168a43.668,43.668,0,0,0,.155,5.532c.055.553.127,1.112.221,1.659a15.453,15.453,0,0,0,1.046,3.789,38.683,38.683,0,0,0,2.312,4.165A1.89,1.89,0,0,1,386.591,22.672Z" transform="translate(-357.279 -5.457)" fill="#374149"/>
  <path id="パス_73" data-name="パス 73" d="M122.411,146.709V125.688H128.4q-.125-.83-.2-1.659H114.81c-.046.51-.109,1.029-.189,1.544-.006.034-.01.071-.016.1h0s0,.007,0,.01h6.146v21.021h-8.607c.072.852.121,1.571.149,2.069l.006.144h18.415l.006-.144c.032-.484.075-1.179.144-2,0-.02,0-.038.005-.058h0v-.01h-8.458Z" transform="translate(-104.858 -116.284)" fill="#374149"/>
  <path id="パス_74" data-name="パス 74" d="M.1,296.73H3.944a.341.341,0,0,0,.315-.2.334.334,0,0,0,.028-.133v-.7a.348.348,0,0,0-.343-.343H0v1.372H0v.01Z" transform="translate(0 -276.472)" fill="#374149"/>
  <path id="パス_75" data-name="パス 75" d="M450.23,295.348h-3.883a.347.347,0,0,0-.337.343v.7a.3.3,0,0,0,.044.161.331.331,0,0,0,.293.177H448l2.213.006h.083v-1.388Z" transform="translate(-417.034 -276.473)" fill="#374149"/>
</svg>
