<svg id="goods11" xmlns="http://www.w3.org/2000/svg" width="38.65" height="25.528" viewBox="0 0 38.65 25.528">
  <path id="パス_61" data-name="パス 61" d="M.01,90.913,0,90.925H38.65l-3.436-4.009H3.437l-2.074,2.42L0,90.913Z" transform="translate(0 -86.916)" fill="#374149"/>
  <path id="パス_62" data-name="パス 62" d="M0,156.39v.009H0v.012H38.65v-1.456H0Z" transform="translate(0 -149.819)" fill="#374149"/>
  <path id="パス_63" data-name="パス 63" d="M19.716,193.6h-2.33v17.463h0v.012h2.34v-.024l1.042-2.4V193.6H19.716Z" transform="translate(-16.074 -185.543)" fill="#374149"/>
  <path id="パス_64" data-name="パス 64" d="M450.858,193.6h-1.041v15.048l1.041,2.4v.024h2.34V193.6h-2.34Z" transform="translate(-415.861 -185.543)" fill="#374149"/>
  <path id="パス_65" data-name="パス 65" d="M260.993,193.634h-.012v6.389h12.38v-6.389H260.993Zm5.387,3.708v-1.033h1.576v1.033Z" transform="translate(-241.28 -185.578)" fill="#374149"/>
  <path id="パス_66" data-name="パス 66" d="M260.993,297.713h-.012V304.1h12.38v-6.389H260.993Zm5.387,3.708v-1.033h1.576v1.033Z" transform="translate(-241.28 -281.8)" fill="#374149"/>
</svg>
