<svg xmlns="http://www.w3.org/2000/svg" width="34.875" height="34.875" viewBox="0 0 34.875 34.875">
  <g id="icon-condition" transform="translate(2904.75 -3864.062)">
    <path id="パス_1361" data-name="パス 1361" d="M5.063,6.2A16.866,16.866,0,0,1,17.438,1.063a16.808,16.808,0,0,1,12.34,5.1,16.808,16.808,0,0,1,5.1,12.34,16.808,16.808,0,0,1-5.1,12.34,16.808,16.808,0,0,1-12.34,5.1A16.808,16.808,0,0,1,5.1,30.84,16.808,16.808,0,0,1,0,18.5,16.75,16.75,0,0,1,5.063,6.2ZM6.68,29.258a14.8,14.8,0,0,0,10.758,4.43A14.622,14.622,0,0,0,28.16,29.223,14.622,14.622,0,0,0,32.625,18.5,14.622,14.622,0,0,0,28.16,7.777,14.622,14.622,0,0,0,17.438,3.313,14.622,14.622,0,0,0,6.715,7.777,14.622,14.622,0,0,0,2.25,18.5,14.8,14.8,0,0,0,6.68,29.258Zm18.914-17.93a5.394,5.394,0,0,1,1.934,4.078,5.5,5.5,0,0,1-1.512,4.219l-7.664,8.016a1.2,1.2,0,0,1-1.828,0L8.859,19.625a5.5,5.5,0,0,1-1.512-4.219,5.394,5.394,0,0,1,1.934-4.078,5,5,0,0,1,3.832-1.266,5.55,5.55,0,0,1,3.551,1.758l.773.844.773-.844a5.761,5.761,0,0,1,.879-.7,7.07,7.07,0,0,1,1.336-.668,5.8,5.8,0,0,1,1.617-.387,4.746,4.746,0,0,1,1.758.211A4.582,4.582,0,0,1,25.594,11.328Zm-1.2,6.75a3.611,3.611,0,0,0,.949-2.461,3.358,3.358,0,0,0-1.16-2.6,2.758,2.758,0,0,0-1.793-.7,3.224,3.224,0,0,0-1.582.352,3.433,3.433,0,0,0-.984.773L17.438,15.9l-2.391-2.461a3.348,3.348,0,0,0-1.9-1.055,3.427,3.427,0,0,0-2.461.633,3.358,3.358,0,0,0-1.16,2.6,3.611,3.611,0,0,0,.949,2.461l6.961,7.313Z" transform="translate(-2904.75 3863)" fill="#863553"/>
  </g>
</svg>
