<svg id="icon_067320" xmlns="http://www.w3.org/2000/svg" width="48.391" height="21.949" viewBox="0 0 48.391 21.949">
  <path id="パス_92" data-name="パス 92" d="M66.563,322.71v.425H66.22v-.425H49.932l-3.218,0v0H46.7l.216,1.036H86.046l.177-.848.039-.173h0l0-.015Z" transform="translate(-42.285 -305.428)" fill="#374149"/>
  <path id="パス_93" data-name="パス 93" d="M43.4,306.585h19.6v-.619h.343v.619H83.13l.209-1.012.045-.2h0l0-.015H50l-6.839,0v0h-.015Z" transform="translate(-39.071 -289.713)" fill="#374149"/>
  <path id="パス_94" data-name="パス 94" d="M228.641,232.785l.116-.174v-1.1l-.116-.174H222.53l-.116.174v1.1l.116.174Z" transform="translate(-201.393 -222.696)" fill="#374149"/>
  <path id="パス_95" data-name="パス 95" d="M45.213,197.45a.36.36,0,0,0,.084.116l0,0a.374.374,0,0,0,.393.072l.023-.012a.358.358,0,0,0,.117-.062l6.049-6.049a.393.393,0,0,0-.278-.671H45.556a.393.393,0,0,0-.393.393v6.049a.361.361,0,0,0,.047.15S45.211,197.447,45.213,197.45Z" transform="translate(-40.895 -186.03)" fill="#374149"/>
  <path id="パス_96" data-name="パス 96" d="M46.81,139.883H1.573L0,142.657V156.7L.872,160a2.474,2.474,0,0,0,2.393,1.834h41.86A2.472,2.472,0,0,0,47.511,160l.88-3.3V142.657ZM2.237,156.4V143.246l.165-.294H45.987l.167.294V156.4l-.805,3.02a.231.231,0,0,1-.224.171H3.265a.233.233,0,0,1-.231-.171Z" transform="translate(0 -139.883)" fill="#374149"/>
</svg>
