<svg xmlns="http://www.w3.org/2000/svg" width="27" height="36" viewBox="0 0 27 36">
  <path id="icon-purpose" d="M19.688,17.375a.5.5,0,0,1,.563.563v1.125a.5.5,0,0,1-.562.563H11.813a.5.5,0,0,1-.562-.562V17.938a.5.5,0,0,1,.563-.562Zm0,6.75a.5.5,0,0,1,.563.563v1.125a.5.5,0,0,1-.562.563H11.813a.5.5,0,0,1-.562-.562V24.688a.5.5,0,0,1,.563-.562ZM6.68,17.3a1.7,1.7,0,0,1,2.391,0,1.688,1.688,0,0,1-1.2,2.883A1.69,1.69,0,0,1,6.68,17.3Zm0,6.75a1.7,1.7,0,0,1,2.391,0,1.688,1.688,0,0,1-1.2,2.883,1.69,1.69,0,0,1-1.2-2.883ZM23.625,5A3.361,3.361,0,0,1,27,8.375v24.75A3.361,3.361,0,0,1,23.625,36.5H3.375a3.255,3.255,0,0,1-2.391-.984A3.255,3.255,0,0,1,0,33.125V8.375A3.255,3.255,0,0,1,.984,5.984,3.255,3.255,0,0,1,3.375,5H9.633a2.312,2.312,0,0,1-.07-.562,3.789,3.789,0,0,1,1.16-2.777,3.9,3.9,0,0,1,5.555,0,3.789,3.789,0,0,1,1.16,2.777,2.312,2.312,0,0,1-.07.563ZM14.7,3.242a1.688,1.688,0,0,0-2.883,1.2,1.688,1.688,0,1,0,3.375,0A1.627,1.627,0,0,0,14.7,3.242ZM24.75,33.125V8.375A1.083,1.083,0,0,0,23.625,7.25H20.25V8.656a.746.746,0,0,1-.844.844H7.594a.746.746,0,0,1-.844-.844V7.25H3.375A1.083,1.083,0,0,0,2.25,8.375v24.75A1.083,1.083,0,0,0,3.375,34.25h20.25a1.083,1.083,0,0,0,1.125-1.125Z" transform="translate(0 -0.5)" fill="#b2961a"/>
</svg>
