<svg xmlns="http://www.w3.org/2000/svg" width="19.877" height="17.668" viewBox="0 0 19.877 17.668">
  <path id="icon-pricelist" d="M19.877.828V5.245a.829.829,0,0,1-1.414.586L17.231,4.6,8.827,13a.828.828,0,0,1-1.171,0l-.781-.781a.828.828,0,0,1,0-1.171l8.4-8.4L14.047,1.414A.829.829,0,0,1,14.632,0h4.416A.828.828,0,0,1,19.877.828ZM14.046,9.345l-.552.552a.828.828,0,0,0-.243.586V15.46H2.209V4.417h9.11a.828.828,0,0,0,.586-.243l.552-.552a.828.828,0,0,0-.586-1.414H1.656A1.656,1.656,0,0,0,0,3.865V16.012a1.656,1.656,0,0,0,1.656,1.656H13.8a1.656,1.656,0,0,0,1.656-1.656V9.93A.828.828,0,0,0,14.046,9.345Z" fill="#e07e67"/>
</svg>
