<svg xmlns="http://www.w3.org/2000/svg" width="52" height="52" viewBox="0 0 52 52">
  <g id="icon-up" transform="translate(-973 -1190.355)">
    <circle id="楕円形_59" data-name="楕円形 59" cx="26" cy="26" r="26" transform="translate(973 1190.355)" fill="#fff" opacity="0.904"/>
    <path id="Icon_metro-search" data-name="Icon metro-search" d="M32.463,28.179l-7.307-6.215A3.261,3.261,0,0,0,22.94,21,11.57,11.57,0,1,0,21.645,22.3a3.261,3.261,0,0,0,.962,2.216l6.215,7.307a2.592,2.592,0,1,0,3.641-3.641ZM14.139,21.208A7.712,7.712,0,1,1,21.851,13.5a7.712,7.712,0,0,1-7.712,7.712Z" transform="translate(981.005 1199.004)" fill="#727272" opacity="0.904"/>
  </g>
</svg>
