<svg xmlns="http://www.w3.org/2000/svg" width="58.159" height="36.535" viewBox="0 0 58.159 36.535">
  <g id="icon-money" transform="translate(-3 -8.999)">
    <rect id="長方形_2658" data-name="長方形 2658" width="48.188" height="26.504" rx="2.236" transform="translate(4 18.031)" fill="none" stroke="#038e8d" stroke-linecap="round" stroke-linejoin="round" stroke-width="2"/>
    <path id="パス_1440" data-name="パス 1440" d="M10,14.011v-.94A3.117,3.117,0,0,1,13.16,10H54.977a3.117,3.117,0,0,1,3.16,3.072v20.6a3.117,3.117,0,0,1-3.16,3.072H54.01" transform="translate(2.023 0)" fill="none" stroke="#038e8d" stroke-linecap="round" stroke-linejoin="round" stroke-width="2"/>
    <g id="グループ_707" data-name="グループ 707" transform="translate(24.078 24.708)">
      <path id="パス_1441" data-name="パス 1441" d="M26.737,21a4.013,4.013,0,0,1-7.566,0" transform="translate(-18.964 -21)" fill="none" stroke="#038e8d" stroke-linecap="round" stroke-linejoin="round" stroke-width="2"/>
      <line id="線_180" data-name="線 180" x2="8.031" transform="translate(0 5.37)" fill="none" stroke="#038e8d" stroke-linecap="round" stroke-linejoin="round" stroke-width="2"/>
      <line id="線_181" data-name="線 181" x2="8.031" transform="translate(0 9.386)" fill="none" stroke="#038e8d" stroke-linecap="round" stroke-linejoin="round" stroke-width="2"/>
      <line id="線_182" data-name="線 182" y1="8.031" transform="translate(4.016 5.37)" fill="none" stroke="#038e8d" stroke-linecap="round" stroke-linejoin="round" stroke-width="2"/>
    </g>
    <line id="線_183" data-name="線 183" x2="5.622" transform="translate(10.425 31.684)" fill="none" stroke="#038e8d" stroke-linecap="round" stroke-linejoin="round" stroke-width="2"/>
    <line id="線_184" data-name="線 184" x2="5.622" transform="translate(40.141 31.684)" fill="none" stroke="#038e8d" stroke-linecap="round" stroke-linejoin="round" stroke-width="2"/>
  </g>
</svg>
