<svg xmlns="http://www.w3.org/2000/svg" width="18.667" height="25.757" viewBox="0 0 18.667 25.757">
  <path id="Icon-train" d="M19.939,20.5l-.061-.116.031-.044.031-.044a7.176,7.176,0,0,0,1.537-.862,2.542,2.542,0,0,0,.925-1.509l.116-.531V3.679a2.1,2.1,0,0,0-.294-1.024A3.927,3.927,0,0,0,21.49,1.7a4.212,4.212,0,0,0-.98-.7A2.293,2.293,0,0,0,19.468.72H9.654A2.328,2.328,0,0,0,8.641.982a4.2,4.2,0,0,0-1,.675,3.73,3.73,0,0,0-.747.92A2.049,2.049,0,0,0,6.6,3.593V17.51a1.8,1.8,0,0,0,.176.732,3.6,3.6,0,0,0,.44.715,4.53,4.53,0,0,0,.573.618,3.891,3.891,0,0,0,.6.453c.095.04.268.1.514.179s.354.135.335.172l-4.017,6.1H7.569l2.932-4.25H18.59l2.929,4.25h2.374ZM12.23,1.891a.468.468,0,0,1,.147-.309.4.4,0,0,1,.293-.159h3.752a.609.609,0,0,1,.235.114c.116.078.174.156.174.234V3.208a.332.332,0,0,1-.146.263.446.446,0,0,1-.263.121h-3.78L12.523,3.5a1.07,1.07,0,0,1-.19-.162.293.293,0,0,1-.1-.215ZM8.449,5.906a1.352,1.352,0,0,1,.133-.573,2.251,2.251,0,0,1,.337-.513A1.694,1.694,0,0,1,9.4,4.441a1.214,1.214,0,0,1,.574-.147H19.09a1.352,1.352,0,0,1,.525.115,1.8,1.8,0,0,1,.485.323,1.839,1.839,0,0,1,.352.442.99.99,0,0,1,.13.5V8.778a.991.991,0,0,1-.145.51,1.582,1.582,0,0,1-.381.444,2.192,2.192,0,0,1-.5.3,1.209,1.209,0,0,1-.526.118h-9l-.148-.026a.887.887,0,0,1-.177-.061,1.486,1.486,0,0,1-.877-.528,1.44,1.44,0,0,1-.382-.966V5.906Zm2.713,12.1a1.511,1.511,0,0,1-1.128.468,1.423,1.423,0,0,1-1.1-.468,1.646,1.646,0,0,1-.424-1.145A1.479,1.479,0,0,1,8.949,15.8a1.447,1.447,0,0,1,1.084-.457,1.611,1.611,0,0,1,1.128.424,1.477,1.477,0,0,1,.454,1.131A1.544,1.544,0,0,1,11.162,18.009Zm6.711,0a1.589,1.589,0,0,1-.456-1.145,1.4,1.4,0,0,1,.484-1.1,1.679,1.679,0,0,1,1.131-.424,1.437,1.437,0,0,1,1.1.457,1.515,1.515,0,0,1,.426,1.067,1.614,1.614,0,0,1-.441,1.145A1.465,1.465,0,0,1,19,18.477a1.5,1.5,0,0,1-1.126-.468Z" transform="translate(-5.226 -0.72)" fill="#fff"/>
</svg>
