<svg xmlns="http://www.w3.org/2000/svg" width="21.141" height="18.498" viewBox="0 0 21.141 18.498">
  <path id="icon-bloglist" d="M.755,7.616H20.386a.755.755,0,0,0,.755-.755V4.974a.755.755,0,0,0-.755-.755H.755A.755.755,0,0,0,0,4.974V6.861A.755.755,0,0,0,.755,7.616Zm0,7.55H20.386a.755.755,0,0,0,.755-.755V12.524a.755.755,0,0,0-.755-.755H.755A.755.755,0,0,0,0,12.524v1.888A.755.755,0,0,0,.755,15.167Zm0,7.55H20.386a.755.755,0,0,0,.755-.755V20.074a.755.755,0,0,0-.755-.755H.755A.755.755,0,0,0,0,20.074v1.888A.755.755,0,0,0,.755,22.717Z" transform="translate(0 -4.219)" fill="#fff"/>
</svg>
