<svg id="icon-station-green" xmlns="http://www.w3.org/2000/svg" width="38.61" height="45.991" viewBox="0 0 38.61 45.991">
  <path id="パス_1442" data-name="パス 1442" d="M46.651,34.116l1.043-6.171V3.716A3.718,3.718,0,0,0,43.99,0H19.314A3.718,3.718,0,0,0,15.6,3.716V27.945l1.043,6.171ZM17.06,3.716A2.259,2.259,0,0,1,19.314,1.46H43.99a2.259,2.259,0,0,1,2.254,2.256V27.822l-.834,4.834H17.882l-.834-4.834Z" transform="translate(-12.347)" fill="#038e8d"/>
  <path id="パス_1443" data-name="パス 1443" d="M61.931,20.17H40V34.72H61.931ZM41.46,21.63h8.774V33.261H41.46ZM60.473,33.261h-8.78V21.63h8.778Z" transform="translate(-31.658 -15.964)" fill="#038e8d"/>
  <path id="パス_1444" data-name="パス 1444" d="M39.055,106.92A3.055,3.055,0,1,0,36,103.865,3.055,3.055,0,0,0,39.055,106.92Zm0-4.651a1.6,1.6,0,1,1-1.6,1.6A1.6,1.6,0,0,1,39.055,102.27Z" transform="translate(-28.492 -79.786)" fill="#038e8d"/>
  <path id="パス_1445" data-name="パス 1445" d="M122.9,100.81a3.055,3.055,0,1,0,3.055,3.055,3.055,3.055,0,0,0-3.055-3.055Zm0,4.651a1.6,1.6,0,1,1,1.6-1.6A1.6,1.6,0,0,1,122.9,105.461Z" transform="translate(-94.848 -79.786)" fill="#038e8d"/>
  <path id="パス_1446" data-name="パス 1446" d="M29.914,172.73H27.985l1.251,1.433H9.385l1.251-1.433H8.7L0,182.7H1.937l2.9-3.324H33.772l2.9,3.324H38.61Zm-23.8,5.184L8.1,175.62h22.4l1.994,2.294Z" transform="translate(0 -136.708)" fill="#038e8d"/>
</svg>
