<svg xmlns="http://www.w3.org/2000/svg" width="31.5" height="36" viewBox="0 0 31.5 36">
  <path id="icon-station" d="M10.266,26.516a3.255,3.255,0,0,1-2.391.984,3.381,3.381,0,0,1-2.391-5.766,3.255,3.255,0,0,1,2.391-.984,3.381,3.381,0,0,1,2.391,5.766ZM8.648,23.352A.936.936,0,0,0,7.875,23,1.144,1.144,0,1,0,9,24.125.936.936,0,0,0,8.648,23.352Zm17.367,3.164a3.381,3.381,0,0,1-4.781-4.781,3.381,3.381,0,0,1,4.781,4.781ZM24.4,23.352A.936.936,0,0,0,23.625,23a1.144,1.144,0,1,0,1.125,1.125A.936.936,0,0,0,24.4,23.352ZM22.5.5a10.335,10.335,0,0,1,6.258,2A5.8,5.8,0,0,1,31.5,7.25v18a4.825,4.825,0,0,1-.387,1.9,5.6,5.6,0,0,1-1.125,1.688,10.677,10.677,0,0,1-1.652,1.406A9.3,9.3,0,0,1,26.3,31.3a9.868,9.868,0,0,1-2.32.563L27.844,35.8a.4.4,0,0,1-.281.7H25.734a.668.668,0,0,1-.562-.281L20.883,32H10.617L6.328,36.219a.668.668,0,0,1-.562.281H3.938a.4.4,0,0,1-.281-.7l3.867-3.937a10.053,10.053,0,0,1-5.309-2.32A5.568,5.568,0,0,1,0,25.25v-18A5.781,5.781,0,0,1,2.777,2.5,10.381,10.381,0,0,1,9,.5ZM2.25,9.5v6.75H14.625V9.5Zm27,15.75V18.5h-27v6.75q0,1.688,2.109,3.094A8.191,8.191,0,0,0,9,29.75H22.5a8.191,8.191,0,0,0,4.641-1.406Q29.25,26.938,29.25,25.25Zm0-9V9.5H16.875v6.75Zm-27-9h27a4.007,4.007,0,0,0-1.934-3.023A7.7,7.7,0,0,0,22.5,2.75H9A8.191,8.191,0,0,0,4.359,4.156Q2.25,5.563,2.25,7.25Z" transform="translate(0 -0.5)" fill="#ad6554"/>
</svg>
