<svg xmlns="http://www.w3.org/2000/svg" width="25.367" height="35" viewBox="0 0 25.367 35">
  <path id="Icon-train-green" d="M25.22,27.595l-.083-.158.042-.059.042-.059a9.752,9.752,0,0,0,2.089-1.171A3.454,3.454,0,0,0,28.566,24.1l.157-.721V4.741a2.856,2.856,0,0,0-.4-1.391,5.337,5.337,0,0,0-1-1.3A5.724,5.724,0,0,0,26,1.1,3.116,3.116,0,0,0,24.579.72H11.243a3.164,3.164,0,0,0-1.376.356,5.7,5.7,0,0,0-1.354.918A5.068,5.068,0,0,0,7.5,3.244a2.784,2.784,0,0,0-.4,1.38V23.536a2.44,2.44,0,0,0,.239,1,4.9,4.9,0,0,0,.6.972,6.156,6.156,0,0,0,.779.84,5.288,5.288,0,0,0,.816.616c.129.054.364.137.7.243s.48.183.456.234L5.226,35.721H8.41l3.984-5.775H23.387l3.98,5.775h3.226ZM14.744,2.311a.636.636,0,0,1,.2-.42.544.544,0,0,1,.4-.215h5.1a.828.828,0,0,1,.32.156c.157.107.237.212.237.318V4.1a.452.452,0,0,1-.2.358.606.606,0,0,1-.358.165H15.3L15.141,4.5a1.454,1.454,0,0,1-.258-.22.4.4,0,0,1-.139-.293ZM9.606,7.767a1.838,1.838,0,0,1,.18-.778,3.058,3.058,0,0,1,.458-.7,2.3,2.3,0,0,1,.656-.514,1.65,1.65,0,0,1,.78-.2H24.065a1.838,1.838,0,0,1,.713.156,2.45,2.45,0,0,1,.659.44,2.5,2.5,0,0,1,.478.6,1.345,1.345,0,0,1,.177.674v4.222a1.347,1.347,0,0,1-.2.694,2.15,2.15,0,0,1-.518.6,2.978,2.978,0,0,1-.678.412,1.643,1.643,0,0,1-.715.161H11.759l-.2-.036a1.2,1.2,0,0,1-.24-.083,2.02,2.02,0,0,1-1.192-.717,1.957,1.957,0,0,1-.519-1.312V7.767Zm3.687,16.448a2.054,2.054,0,0,1-1.533.636,1.933,1.933,0,0,1-1.5-.636,2.237,2.237,0,0,1-.576-1.556,2.01,2.01,0,0,1,.6-1.45,1.966,1.966,0,0,1,1.473-.621,2.19,2.19,0,0,1,1.533.576A2.007,2.007,0,0,1,13.91,22.7,2.1,2.1,0,0,1,13.293,24.214Zm9.119,0a2.159,2.159,0,0,1-.619-1.556,1.9,1.9,0,0,1,.657-1.5,2.281,2.281,0,0,1,1.536-.576,1.952,1.952,0,0,1,1.492.621,2.058,2.058,0,0,1,.579,1.45,2.193,2.193,0,0,1-.6,1.556,1.991,1.991,0,0,1-1.516.636,2.044,2.044,0,0,1-1.53-.636Z" transform="translate(-5.226 -0.72)" fill="#84ccc1"/>
</svg>
