<svg xmlns="http://www.w3.org/2000/svg" width="20" height="20" viewBox="0 0 20 20">
  <path id="icon-btn-img" d="M9.375,5.107h2.5a.674.674,0,0,0,.625-.714V2.964a.674.674,0,0,0-.625-.714h-2.5a.674.674,0,0,0-.625.714V4.393A.674.674,0,0,0,9.375,5.107Zm0,5.714h5A.674.674,0,0,0,15,10.107V8.679a.674.674,0,0,0-.625-.714h-5a.674.674,0,0,0-.625.714v1.429A.674.674,0,0,0,9.375,10.821Zm10,8.571h-10a.674.674,0,0,0-.625.714v1.429a.674.674,0,0,0,.625.714h10A.674.674,0,0,0,20,21.536V20.107A.674.674,0,0,0,19.375,19.393Zm-10-2.857h7.5a.674.674,0,0,0,.625-.714V14.393a.674.674,0,0,0-.625-.714h-7.5a.674.674,0,0,0-.625.714v1.429A.674.674,0,0,0,9.375,16.536Zm-2.5,0H5V2.964a.674.674,0,0,0-.625-.714H3.125a.674.674,0,0,0-.625.714V16.536H.625a.731.731,0,0,0-.441,1.219l3.125,4.286a.571.571,0,0,0,.884,0l3.125-4.286A.732.732,0,0,0,6.875,16.536Z" transform="translate(0 -2.25)" fill="#b7b7b7"/>
</svg>
