<svg xmlns="http://www.w3.org/2000/svg" width="26.786" height="21.764" viewBox="0 0 26.786 21.764">
  <path id="Icon-list" d="M2.511,3.375A2.511,2.511,0,1,0,5.022,5.886,2.511,2.511,0,0,0,2.511,3.375Zm0,8.371a2.511,2.511,0,1,0,2.511,2.511A2.511,2.511,0,0,0,2.511,11.746Zm0,8.371a2.511,2.511,0,1,0,2.511,2.511,2.511,2.511,0,0,0-2.511-2.511Zm23.438.837H9.208a.837.837,0,0,0-.837.837v1.674a.837.837,0,0,0,.837.837H25.949a.837.837,0,0,0,.837-.837V21.79A.837.837,0,0,0,25.949,20.953Zm0-16.741H9.208a.837.837,0,0,0-.837.837V6.723a.837.837,0,0,0,.837.837H25.949a.837.837,0,0,0,.837-.837V5.049A.837.837,0,0,0,25.949,4.212Zm0,8.371H9.208a.837.837,0,0,0-.837.837v1.674a.837.837,0,0,0,.837.837H25.949a.837.837,0,0,0,.837-.837V13.42A.837.837,0,0,0,25.949,12.583Z" transform="translate(0 -3.375)" fill="#fff"/>
</svg>
