<svg xmlns="http://www.w3.org/2000/svg" width="31.859" height="28.891" viewBox="0 0 31.859 28.891">
  <path id="Icon-comment" d="M15.93,2.25C7.131,2.25,0,8.254,0,15.663a12.113,12.113,0,0,0,3.547,8.429A16.527,16.527,0,0,1,.137,30.27a.527.527,0,0,0-.093.561.487.487,0,0,0,.454.31,13.949,13.949,0,0,0,8.749-3.315,18.387,18.387,0,0,0,6.683,1.251c8.8,0,15.93-6,15.93-13.413S24.728,2.25,15.93,2.25ZM7.965,17.727a2.065,2.065,0,1,1,1.991-2.064A2.026,2.026,0,0,1,7.965,17.727Zm7.965,0a2.065,2.065,0,1,1,1.991-2.064A2.026,2.026,0,0,1,15.93,17.727Zm7.965,0a2.065,2.065,0,1,1,1.991-2.064A2.026,2.026,0,0,1,23.894,17.727Z" transform="translate(0 -2.25)" fill="#fff"/>
</svg>
