<svg xmlns="http://www.w3.org/2000/svg" xmlns:xlink="http://www.w3.org/1999/xlink" width="79.276" height="72.6" viewBox="0 0 79.276 72.6">
  <defs>
    <clipPath id="clip-path">
      <rect id="長方形_1973" data-name="長方形 1973" width="79.276" height="72.6" fill="none" stroke="#038e8d" stroke-width="2"/>
    </clipPath>
  </defs>
  <g id="icon-support" transform="translate(-601.296 -1089.71)">
    <line id="線_171" data-name="線 171" y2="20.134" transform="translate(622.755 1105.684)" fill="none" stroke="#038e8d" stroke-linecap="round" stroke-linejoin="round" stroke-width="2"/>
    <line id="線_172" data-name="線 172" y1="20.134" transform="translate(659.071 1105.684)" fill="none" stroke="#038e8d" stroke-linecap="round" stroke-linejoin="round" stroke-width="2"/>
    <g id="グループ_271" data-name="グループ 271" transform="translate(601.296 1089.71)">
      <g id="グループ_270" data-name="グループ 270" transform="translate(0 0)" clip-path="url(#clip-path)">
        <path id="パス_269" data-name="パス 269" d="M56.768,20.416,33.265,1,9.762,20.416" transform="translate(6.352 0.62)" fill="none" stroke="#038e8d" stroke-linecap="round" stroke-linejoin="round" stroke-width="2"/>
      </g>
    </g>
    <rect id="長方形_1974" data-name="長方形 1974" width="15.855" height="15.855" transform="translate(633.007 1108.355)" fill="none" stroke="#038e8d" stroke-linecap="round" stroke-linejoin="round" stroke-width="2"/>
    <g id="グループ_273" data-name="グループ 273" transform="translate(601.296 1089.71)">
      <g id="グループ_272" data-name="グループ 272" transform="translate(0 0)" clip-path="url(#clip-path)">
        <path id="パス_270" data-name="パス 270" d="M20.617,43.312,10.349,33.044a4.192,4.192,0,0,1-1.189-2.39l-1.3-12a3.541,3.541,0,0,0-5.951-2.55c-1.1,1.1-.939,2.78-.85,4.251l1.7,13.6a4.885,4.885,0,0,0,1.7,3.4l9.85,9.85a5.19,5.19,0,0,1,1.542,2.9v4.381" transform="translate(0.651 9.853)" fill="none" stroke="#038e8d" stroke-linecap="round" stroke-linejoin="round" stroke-width="2"/>
        <path id="パス_271" data-name="パス 271" d="M7.835,29.2a3.607,3.607,0,0,1,5.1-5.1L24.751,35.939a7.107,7.107,0,0,1,2.2,5.185v8.254" transform="translate(4.415 14.97)" fill="none" stroke="#038e8d" stroke-linecap="round" stroke-linejoin="round" stroke-width="2"/>
        <path id="パス_272" data-name="パス 272" d="M29.459,45.6V39H8v6.6" transform="translate(5.206 25.347)" fill="none" stroke="#038e8d" stroke-linecap="round" stroke-linejoin="round" stroke-width="2"/>
        <path id="パス_273" data-name="パス 273" d="M35.116,43.312,45.383,33.044a4.192,4.192,0,0,0,1.189-2.39l1.3-12a3.541,3.541,0,0,1,5.951-2.55c1.1,1.1.939,2.78.85,4.251l-1.7,13.6a4.885,4.885,0,0,1-1.7,3.4l-9.85,9.85a5.19,5.19,0,0,0-1.542,2.9v4.381" transform="translate(22.85 9.853)" fill="none" stroke="#038e8d" stroke-linecap="round" stroke-linejoin="round" stroke-width="2"/>
        <path id="パス_274" data-name="パス 274" d="M48.114,29.2a3.607,3.607,0,0,0-5.1-5.1L31.2,35.939A7.107,7.107,0,0,0,29,41.124v8.254" transform="translate(18.871 14.97)" fill="none" stroke="#038e8d" stroke-linecap="round" stroke-linejoin="round" stroke-width="2"/>
        <path id="パス_275" data-name="パス 275" d="M27,45.6V39H48.459v6.6" transform="translate(17.569 25.347)" fill="none" stroke="#038e8d" stroke-linecap="round" stroke-linejoin="round" stroke-width="2"/>
      </g>
    </g>
  </g>
</svg>
