<svg xmlns="http://www.w3.org/2000/svg" xmlns:xlink="http://www.w3.org/1999/xlink" width="65.914" height="64.149" viewBox="0 0 65.914 64.149">
  <defs>
    <clipPath id="clip-path">
      <rect id="長方形_1976" data-name="長方形 1976" width="65.914" height="64.149" transform="translate(0 0)" fill="none" stroke="#038e8d" stroke-width="2"/>
    </clipPath>
  </defs>
  <g id="reason1" transform="translate(-278 -1089.71)">
    <g id="グループ_275" data-name="グループ 275" transform="translate(278 1089.71)" clip-path="url(#clip-path)">
      <path id="パス_276" data-name="パス 276" d="M64.144,28.661l-9.609-8.419V5.367H46.3v7.659L32.572,1,1,28.661" transform="translate(0.373 0.549)" fill="none" stroke="#038e8d" stroke-linecap="round" stroke-linejoin="round" stroke-width="2"/>
      <path id="パス_277" data-name="パス 277" d="M3,48.2v-3.65c0-6.541,3.064-8.24,7.43-9.215A2.867,2.867,0,0,0,12.609,32.5v-.916" transform="translate(1.118 14.489)" fill="none" stroke="#038e8d" stroke-linecap="round" stroke-linejoin="round" stroke-width="2"/>
      <path id="パス_278" data-name="パス 278" d="M47.609,46.355v-3.8c0-6.541-3.064-8.24-7.43-9.215A2.867,2.867,0,0,1,38,30.5v-.916" transform="translate(14.162 13.578)" fill="none" stroke="#038e8d" stroke-linecap="round" stroke-linejoin="round" stroke-width="2"/>
      <path id="パス_279" data-name="パス 279" d="M18.161,35.894a19.361,19.361,0,0,0-2.093-.577,2.866,2.866,0,0,1-2.178-2.839v-.847" transform="translate(5.176 14.511)" fill="none" stroke="#038e8d" stroke-linecap="round" stroke-linejoin="round" stroke-width="2"/>
      <path id="パス_280" data-name="パス 280" d="M17,45.541c0-3.474.318-5.328,4.685-6.3A2.866,2.866,0,0,0,23.863,36.4v-.933" transform="translate(6.336 16.258)" fill="none" stroke="#038e8d" stroke-linecap="round" stroke-linejoin="round" stroke-width="2"/>
      <path id="パス_281" data-name="パス 281" d="M32.863,45.541c0-3.474-.318-5.328-4.685-6.3A2.866,2.866,0,0,1,26,36.4v-.933" transform="translate(9.69 16.258)" fill="none" stroke="#038e8d" stroke-linecap="round" stroke-linejoin="round" stroke-width="2"/>
      <path id="パス_282" data-name="パス 282" d="M11.118,35.953A7.308,7.308,0,0,1,7,29.279,7.081,7.081,0,0,1,13.863,22a7.081,7.081,0,0,1,6.863,7.279,7.293,7.293,0,0,1-4.27,6.742" transform="translate(2.609 10.121)" fill="none" stroke="#038e8d" stroke-linecap="round" stroke-linejoin="round" stroke-width="2"/>
      <path id="パス_283" data-name="パス 283" d="M35.118,33.953A7.308,7.308,0,0,1,31,27.279,7.081,7.081,0,0,1,37.863,20a7.081,7.081,0,0,1,6.863,7.279,7.308,7.308,0,0,1-4.118,6.673" transform="translate(11.553 9.209)" fill="none" stroke="#038e8d" stroke-linecap="round" stroke-linejoin="round" stroke-width="2"/>
      <path id="パス_284" data-name="パス 284" d="M31.348,33.713c.468-.138.957-.262,1.462-.374A2.868,2.868,0,0,0,34.988,30.5v-.916" transform="translate(11.683 13.578)" fill="none" stroke="#038e8d" stroke-linecap="round" stroke-linejoin="round" stroke-width="2"/>
      <path id="パス_285" data-name="パス 285" d="M22.745,38.868A5.891,5.891,0,0,1,20,33.823,5.665,5.665,0,0,1,25.491,28a5.665,5.665,0,0,1,5.491,5.823,5.891,5.891,0,0,1-2.745,5.044" transform="translate(7.454 12.856)" fill="none" stroke="#038e8d" stroke-linecap="round" stroke-linejoin="round" stroke-width="2"/>
    </g>
  </g>
</svg>
