<svg xmlns="http://www.w3.org/2000/svg" xmlns:xlink="http://www.w3.org/1999/xlink" width="74.202" height="70.554" viewBox="0 0 74.202 70.554">
  <defs>
    <clipPath id="clip-path">
      <rect id="長方形_1973" data-name="長方形 1973" width="74.202" height="70.554" fill="none" stroke="#038e8d" stroke-width="2"/>
    </clipPath>
  </defs>
  <g id="reason2" transform="translate(-601.296 -1089.71)">
    <line id="線_171" data-name="線 171" y2="20.336" transform="translate(621.382 1105)" fill="none" stroke="#038e8d" stroke-linecap="round" stroke-linejoin="round" stroke-width="2"/>
    <line id="線_172" data-name="線 172" y1="20.336" transform="translate(655.373 1105)" fill="none" stroke="#038e8d" stroke-linecap="round" stroke-linejoin="round" stroke-width="2"/>
    <g id="グループ_271" data-name="グループ 271" transform="translate(601.296 1089.71)">
      <g id="グループ_270" data-name="グループ 270" transform="translate(0 0)" clip-path="url(#clip-path)">
        <path id="パス_269" data-name="パス 269" d="M53.759,19.868,31.76,1l-22,18.869" transform="translate(5.321 0.574)" fill="none" stroke="#038e8d" stroke-linecap="round" stroke-linejoin="round" stroke-width="2"/>
      </g>
    </g>
    <rect id="長方形_1974" data-name="長方形 1974" width="16.015" height="16.015" transform="translate(630.389 1107.63)" fill="none" stroke="#038e8d" stroke-linecap="round" stroke-linejoin="round" stroke-width="2"/>
    <g id="グループ_273" data-name="グループ 273" transform="translate(601.296 1089.71)">
      <g id="グループ_272" data-name="グループ 272" transform="translate(0 0)" clip-path="url(#clip-path)">
        <path id="パス_270" data-name="パス 270" d="M19.361,42.519l-9.61-9.978a4.134,4.134,0,0,1-1.112-2.323L7.426,18.561a3.3,3.3,0,0,0-5.57-2.478c-1.027,1.067-.879,2.7-.8,4.131L2.651,33.431a4.828,4.828,0,0,0,1.591,3.3l9.219,9.572a5.107,5.107,0,0,1,1.443,2.82v4.258" transform="translate(0.545 9.148)" fill="none" stroke="#038e8d" stroke-linecap="round" stroke-linejoin="round" stroke-width="2"/>
        <path id="パス_271" data-name="パス 271" d="M7.767,29.03A3.594,3.594,0,0,1,7,25.32a3.46,3.46,0,0,1,1.964-2.041,3.278,3.278,0,0,1,3.574.794L23.6,35.575a7.034,7.034,0,0,1,2.056,5.039v8.021" transform="translate(3.698 13.898)" fill="none" stroke="#038e8d" stroke-linecap="round" stroke-linejoin="round" stroke-width="2"/>
        <path id="パス_272" data-name="パス 272" d="M28.086,45.417V39H8v6.417" transform="translate(4.36 23.534)" fill="none" stroke="#038e8d" stroke-linecap="round" stroke-linejoin="round" stroke-width="2"/>
        <path id="パス_273" data-name="パス 273" d="M35.116,42.519l9.61-9.978a4.134,4.134,0,0,0,1.112-2.323l1.213-11.658a3.3,3.3,0,0,1,5.57-2.478c1.029,1.067.879,2.7.8,4.131L51.826,33.431a4.828,4.828,0,0,1-1.591,3.3l-9.219,9.572a5.107,5.107,0,0,0-1.443,2.82v4.258" transform="translate(19.14 9.148)" fill="none" stroke="#038e8d" stroke-linecap="round" stroke-linejoin="round" stroke-width="2"/>
        <path id="パス_274" data-name="パス 274" d="M46.89,29.03a3.594,3.594,0,0,0,.763-3.711,3.46,3.46,0,0,0-1.964-2.041,3.278,3.278,0,0,0-3.574.794l-11.059,11.5A7.034,7.034,0,0,0,29,40.614v8.021" transform="translate(15.806 13.898)" fill="none" stroke="#038e8d" stroke-linecap="round" stroke-linejoin="round" stroke-width="2"/>
        <path id="パス_275" data-name="パス 275" d="M27,45.417V39H47.086v6.417" transform="translate(14.716 23.534)" fill="none" stroke="#038e8d" stroke-linecap="round" stroke-linejoin="round" stroke-width="2"/>
      </g>
    </g>
  </g>
</svg>
