<svg xmlns="http://www.w3.org/2000/svg" xmlns:xlink="http://www.w3.org/1999/xlink" width="70" height="76" viewBox="0 0 70 76">
  <defs>
    <clipPath id="clip-path">
      <rect id="長方形_3065" data-name="長方形 3065" width="70" height="76" transform="translate(389 1522)" fill="#fff" stroke="#707070" stroke-width="1"/>
    </clipPath>
    <clipPath id="clip-path-2">
      <rect id="長方形_3064" data-name="長方形 3064" width="55.915" height="77.979" fill="#038e8d"/>
    </clipPath>
  </defs>
  <g id="service-icon3" transform="translate(-389 -1522)" clip-path="url(#clip-path)">
    <g id="グループ_1369" data-name="グループ 1369" transform="translate(398.035 1531.146)">
      <g id="グループ_1368" data-name="グループ 1368" clip-path="url(#clip-path-2)">
        <path id="パス_1552" data-name="パス 1552" d="M106.461,72.239a.818.818,0,0,0,.29-.054l6.693-2.558a.813.813,0,1,0-.58-1.519l-6.693,2.558a.813.813,0,0,0,.29,1.573" transform="translate(-59.015 -38.015)" fill="#038e8d"/>
        <path id="パス_1553" data-name="パス 1553" d="M113.43,87.523l-6.693-2.408a.813.813,0,0,0-.55,1.531l6.693,2.408a.813.813,0,0,0,.55-1.531" transform="translate(-59.015 -47.518)" fill="#038e8d"/>
        <path id="パス_1554" data-name="パス 1554" d="M55.9,73.4c.026-6.954.057-15.61-4.472-20.517-2.885-3.071-6.3-4.65-9.6-6.178q-.584-.27-1.177-.547a22.6,22.6,0,0,0,2.9-11.57.813.813,0,0,0-1.626.05,20.952,20.952,0,0,1-2.74,10.809c-.7-.347-1.395-.71-2.08-1.107a.813.813,0,0,0-1.189.481L28.073,72.2,20.2,44.591a.813.813,0,0,0-1.189-.481c-1.51.872-3.1,1.625-4.631,2.354l-.106.05a34.266,34.266,0,0,0,3.491-7.885,10.965,10.965,0,0,0,5.3,1.686,2.893,2.893,0,1,0-.093-1.64A9.411,9.411,0,0,1,14.4,31a3.149,3.149,0,0,0,2.01-2.93V23.728a3.149,3.149,0,0,0-2.855-3.13,15.516,15.516,0,0,1-.221-2.173c-.012-.231-.025-.468-.04-.711A14.76,14.76,0,0,1,25.535,1.856C31.575.783,38.8,3.433,41.343,11.773c.006.018.011.036.019.053a22.208,22.208,0,0,1,1.5,7.133.813.813,0,1,0,1.625-.065,23.8,23.8,0,0,0-1.6-7.623C40.055,2,31.992-.944,25.25.255A16.354,16.354,0,0,0,11.672,17.812c.015.241.028.474.04.7a17.155,17.155,0,0,0,.241,2.365,3.11,3.11,0,0,0-1.691,1.917,1.681,1.681,0,0,0-1.151,1.593v3.032a1.68,1.68,0,0,0,1.151,1.593,3.119,3.119,0,0,0,2.518,2.17,10.994,10.994,0,0,0,3.576,6.391,34.733,34.733,0,0,1-4.715,10.092.788.788,0,0,0-.086.177,24.938,24.938,0,0,0-7.072,5.046C-.041,57.788-.009,66.444.017,73.4c0,1.328.009,2.581-.017,3.749a.813.813,0,1,0,1.627.036c.026-1.189.021-2.453.017-3.792-.024-6.67-.055-14.97,4.031-19.4,2.713-2.887,5.961-4.429,9.4-6.061,1.264-.6,2.562-1.216,3.84-1.908l8.375,29.36a.813.813,0,0,0,.782.59h0a.813.813,0,0,0,.782-.589L37.19,46.252c1.323.712,2.654,1.328,3.949,1.927,3.307,1.53,6.432,2.975,9.1,5.81,4.091,4.433,4.06,12.733,4.036,19.4,0,1.338-.009,2.6.017,3.792a.814.814,0,0,0,.813.8h.019a.814.814,0,0,0,.795-.832c-.026-1.168-.021-2.422-.017-3.75M11.755,28.21a.813.813,0,0,0-.81-.742h-.156a.051.051,0,0,1-.051-.051V24.385a.051.051,0,0,1,.051-.051h.156a.813.813,0,0,0,.81-.742,1.518,1.518,0,0,1,3.031.136v4.347a1.518,1.518,0,0,1-3.031.136m14.022,9.861a1.268,1.268,0,1,1-1.268,1.268,1.27,1.27,0,0,1,1.268-1.268" transform="translate(0 0)" fill="#038e8d"/>
        <path id="パス_1555" data-name="パス 1555" d="M78.258,48.83a.813.813,0,1,0,.063,1.626c.02,0,1.917-.058,2.425,1.364.425,1.19.948,3.44-.327,5.135a3,3,0,0,1-2.584,1.218.807.807,0,0,0-.843.618c-1.487,6.085-5.607,9.99-9.031,11.161a.813.813,0,1,0,.526,1.539c4.456-1.524,8.385-6.184,9.926-11.708a4.593,4.593,0,0,0,3.306-1.85c1.732-2.3,1.093-5.161.558-6.659-.9-2.534-3.894-2.448-4.02-2.443" transform="translate(-37.656 -27.276)" fill="#038e8d"/>
        <path id="パス_1556" data-name="パス 1556" d="M59.135,106.909a7.453,7.453,0,0,1-2.12-1.942.813.813,0,0,0-1.394.146,4.013,4.013,0,0,1-3.977,2.333.813.813,0,0,0-.132,1.621,5.7,5.7,0,0,0,3.325-.764,5.631,5.631,0,0,0,1.635-1.464,9.067,9.067,0,0,0,4.469,2.545.8.8,0,0,0,.187.022.813.813,0,0,0,.185-1.6,7.466,7.466,0,0,1-2.178-.893" transform="translate(-28.357 -58.45)" fill="#038e8d"/>
        <path id="パス_1557" data-name="パス 1557" d="M60,33.014a.813.813,0,0,0,.678-1.479c-3.708-1.7-6.353-3.852-7.861-6.393a.813.813,0,0,0-1.311-.121c-2.189,2.5-6.662,4-10.609,5.328-1.674.563-3.255,1.094-4.572,1.669a.813.813,0,1,0,.651,1.491c1.252-.546,2.8-1.067,4.44-1.618,3.758-1.263,7.971-2.68,10.57-5.044A19.5,19.5,0,0,0,60,33.014" transform="translate(-20.022 -13.822)" fill="#038e8d"/>
      </g>
    </g>
  </g>
</svg>
