<svg id="service-icon1" xmlns="http://www.w3.org/2000/svg" xmlns:xlink="http://www.w3.org/1999/xlink" width="47.92" height="62.058" viewBox="0 0 47.92 62.058">
  <defs>
    <clipPath id="clip-path">
      <rect id="長方形_3061" data-name="長方形 3061" width="47.92" height="62.058" fill="#038e8d"/>
    </clipPath>
  </defs>
  <g id="グループ_1350" data-name="グループ 1350" clip-path="url(#clip-path)">
    <path id="パス_1533" data-name="パス 1533" d="M39.741,59.117a6.307,6.307,0,0,0-5.6-3.154,6.226,6.226,0,0,0-6.107,6.325c0,7.1,9.256,14.435,11.737,14.435,1.435,0,3.522-1.6,4.639-2.55.169-.144,4.163-3.559,5.236-5.3a.8.8,0,0,0-1.37-.843,35.169,35.169,0,0,1-4.909,4.92c-1.745,1.488-3.087,2.166-3.6,2.166-1.4,0-10.128-6.318-10.128-12.827a4.617,4.617,0,0,1,4.5-4.717,4.861,4.861,0,0,1,4.808,3.7.8.8,0,0,0,.768.565h.054a.8.8,0,0,0,.768-.565,4.9,4.9,0,0,1,4.862-3.7,4.551,4.551,0,0,1,4.472,4.717,7.114,7.114,0,0,1-.255,1.814.8.8,0,0,0,1.555.413,8.72,8.72,0,0,0,.308-2.227,6.14,6.14,0,0,0-6.08-6.325,6.367,6.367,0,0,0-5.656,3.154" transform="translate(-15.794 -31.533)" fill="#038e8d"/>
    <path id="パス_1534" data-name="パス 1534" d="M47.178,12.01a32.26,32.26,0,0,1-20.8-9.851L24.54.248,24.534.242a.769.769,0,0,0-.079-.067C24.44.164,24.428.15,24.412.14A.8.8,0,0,0,24.3.077c-.009,0-.016-.01-.024-.013a.805.805,0,0,0-.63,0l-.019.01a.79.79,0,0,0-.119.066c-.015.01-.027.023-.041.033a.811.811,0,0,0-.081.069l-.006.005L21.546,2.16A32.257,32.257,0,0,1,.741,12.01a.8.8,0,0,0-.741.8V34.435C0,46.881,8.239,56.807,22.619,61.671l1.1.349a.8.8,0,0,0,.488,0l1.11-.354C39.68,56.807,47.92,46.881,47.92,34.435V12.812a.8.8,0,0,0-.742-.8m-.867,22.424c0,11.713-7.841,21.083-21.5,25.7l-.853.272-.839-.267C9.449,55.518,1.608,46.148,1.608,34.435V13.548a33.865,33.865,0,0,0,21.1-10.276l.447-.467V16.991a.8.8,0,0,0,1.609,0V2.806l.448.467a33.865,33.865,0,0,0,21.1,10.276Z" fill="#038e8d"/>
  </g>
</svg>
