<svg id="service-icon4" xmlns="http://www.w3.org/2000/svg" xmlns:xlink="http://www.w3.org/1999/xlink" width="64.434" height="49.261" viewBox="0 0 64.434 49.261">
  <defs>
    <clipPath id="clip-path">
      <rect id="長方形_3068" data-name="長方形 3068" width="64.434" height="49.261" fill="#ce4e30"/>
    </clipPath>
  </defs>
  <g id="グループ_1374" data-name="グループ 1374" transform="translate(0 0)" clip-path="url(#clip-path)">
    <path id="パス_1570" data-name="パス 1570" d="M64.432,8.088s0-.009,0-.014,0-.032,0-.048a.769.769,0,0,0-.008-.08c0-.022-.011-.043-.016-.065a.668.668,0,0,0-.021-.069c-.009-.022-.019-.042-.03-.063s-.02-.041-.033-.06a.676.676,0,0,0-.04-.055c-.014-.019-.029-.037-.045-.055s-.032-.03-.048-.044-.036-.032-.056-.046-.039-.025-.059-.036-.04-.023-.061-.033a.764.764,0,0,0-.073-.026c-.016-.005-.031-.013-.047-.017l-.016,0c-.023-.005-.046-.007-.07-.011a.739.739,0,0,0-.077-.008H12.649L10.9.54A.719.719,0,0,0,10.2,0H.719a.719.719,0,1,0,0,1.437H9.642l1.795,6.974a.709.709,0,0,0,.227.357L19.641,40.3c0,.007.006.012.008.019a.71.71,0,0,0,.087.2l0,.008a.7.7,0,0,0,.143.153c.009.008.018.016.028.024a.728.728,0,0,0,.178.1l.037.011a.722.722,0,0,0,.206.035h6.091a4.508,4.508,0,1,0,4.5,0H45.571a4.508,4.508,0,1,0,4.5,0h5.54a.724.724,0,0,0,.206-.035l.037-.011a.728.728,0,0,0,.178-.1c.01-.007.019-.016.028-.024a.72.72,0,0,0,.143-.153l0-.008a.71.71,0,0,0,.087-.2c0-.007.007-.012.008-.019L64.412,8.25c0-.005,0-.01,0-.015.005-.023.007-.048.011-.072a.7.7,0,0,0,.007-.075m-3.98,9.949H50.308l1.17-9.245H62.792Zm-2.7,10.683H48.956l1.17-9.245h9.963ZM55.047,39.4H47.6l1.17-9.245h8.612Zm-16.356,0V30.158h8.635L46.156,39.4Zm-8.9,0-1.17-9.245h8.635V39.4Zm-8.891,0-2.339-9.245h8.612l1.17,9.245Zm3.57-30.611,1.17,9.245H15.491L13.152,8.793ZM38.691,19.475h9.986l-1.17,9.245H38.691Zm-1.437,9.245H28.437l-1.17-9.245h9.986Zm1.437-10.683V8.793H50.028l-1.17,9.245Zm-1.437,0H27.086l-1.17-9.245H37.253ZM25.818,19.475l1.17,9.245H18.194l-2.339-9.245Zm2.856,28.348a3.077,3.077,0,1,1,3.07-3.077,3.077,3.077,0,0,1-3.07,3.077m19.146,0a3.077,3.077,0,1,1,3.071-3.077,3.077,3.077,0,0,1-3.071,3.077" transform="translate(0 0)" fill="#ce4e30"/>
  </g>
</svg>
