<svg id="service-icon5" xmlns="http://www.w3.org/2000/svg" xmlns:xlink="http://www.w3.org/1999/xlink" width="50.135" height="45.637" viewBox="0 0 50.135 45.637">
  <defs>
    <clipPath id="clip-path">
      <rect id="長方形_3075" data-name="長方形 3075" width="50.135" height="45.637" transform="translate(0 0)" fill="#efa700"/>
    </clipPath>
  </defs>
  <g id="グループ_1394" data-name="グループ 1394" transform="translate(0 0)" clip-path="url(#clip-path)">
    <path id="パス_1575" data-name="パス 1575" d="M48.242,10.636H39.661a.678.678,0,1,0,0,1.357h8.581a.537.537,0,0,1,.536.537v4.213a.537.537,0,0,1-.536.536H30.214V11.941H34.3a6.723,6.723,0,0,0,5.039-1.928A6.067,6.067,0,0,0,40.946,5.8c0-2.814-1.821-5.8-5.194-5.8h-.043c-3.807.242-6.3,3.4-9.193,7.047-.548.692-1.11,1.4-1.7,2.121-.592-.718-1.154-1.428-1.7-2.12C20.222,3.4,17.726.243,13.918,0h-.043C10.5,0,8.68,2.991,8.68,5.8a6.068,6.068,0,0,0,1.611,4.208,6.723,6.723,0,0,0,5.039,1.928h4.583v5.338H1.893a.537.537,0,0,1-.536-.536V12.529a.537.537,0,0,1,.536-.537H9.669a.678.678,0,1,0,0-1.357H1.893A1.9,1.9,0,0,0,0,12.529v4.213a1.9,1.9,0,0,0,1.893,1.893h18.02V44.275H4.04a.372.372,0,0,1-.371-.371V20.6a.679.679,0,0,0-1.357,0V43.9A1.73,1.73,0,0,0,4.04,45.632h16.5c.018,0,.034.005.052.005h8.943c.018,0,.034,0,.052-.005h16.5A1.73,1.73,0,0,0,47.816,43.9V20.6a.679.679,0,0,0-1.357,0V43.9a.372.372,0,0,1-.371.371H30.214V18.636H48.242a1.9,1.9,0,0,0,1.893-1.893V12.529a1.9,1.9,0,0,0-1.893-1.893m-22.76-.148c.743-.886,1.431-1.756,2.1-2.6,2.793-3.529,5-6.318,8.193-6.533,2.479.013,3.816,2.3,3.816,4.448A4.718,4.718,0,0,1,38.35,9.079a5.411,5.411,0,0,1-4.054,1.5H25.439a.636.636,0,0,0,.042-.1M11.276,9.079A4.718,4.718,0,0,1,10.037,5.8c0-2.15,1.337-4.434,3.816-4.448,3.193.215,5.4,3,8.194,6.534.691.873,1.4,1.775,2.177,2.693H15.331a5.41,5.41,0,0,1-4.054-1.5m9.995,2.862h7.586v5.338H21.271Zm7.586,32.334H21.271V18.636h7.586Z" transform="translate(0 0)" fill="#efa700"/>
  </g>
</svg>
